<svg width="208" height="185" viewBox="0 0 208 185" fill="none" xmlns="http://www.w3.org/2000/svg">
<g clip-path="url(#clip0)">
<path d="M100.807 185C156.481 185 201.614 172.099 201.614 156.184C201.614 140.269 156.481 127.368 100.807 127.368C45.1328 127.368 0 140.269 0 156.184C0 172.099 45.1328 185 100.807 185Z" fill="#F5F5F5"/>
<path d="M155.464 92.5401C155.464 92.5401 142.984 101.37 146.281 118.218C149.578 135.067 128.753 158.563 128.753 158.563C128.753 158.563 128.932 158.563 129.266 158.563C151.807 158.453 166.969 135.283 157.993 114.597C154.661 106.908 152.337 98.1539 155.464 92.5401Z" fill="#4478DA"/>
<path d="M155.464 92.5401C155.464 92.5401 147.223 104.573 151.398 116.263C155.573 127.952 145.476 157.018 128.76 158.563" stroke="#535461" stroke-miterlimit="10"/>
<path d="M167.049 138.909C167.049 138.909 155.226 134.888 152.25 145.597C149.274 156.307 126.746 153.986 126.746 153.986C126.746 153.986 126.874 154.111 127.116 154.335C143.432 169.563 161.758 168.196 161.857 151.708C161.895 145.581 163.002 139.616 167.049 138.909Z" fill="#4478DA"/>
<path opacity="0.2" d="M167.049 138.909C167.049 138.909 155.226 134.888 152.25 145.597C149.274 156.307 126.746 153.986 126.746 153.986C126.746 153.986 126.874 154.111 127.116 154.335C143.432 169.563 161.758 168.196 161.857 151.708C161.895 145.581 163.002 139.616 167.049 138.909Z" fill="#F5F5F5"/>
<path d="M167.049 138.909C167.049 138.909 157.259 139.364 156.562 148.078C155.865 156.792 139.32 164.54 126.746 153.986" stroke="#535461" stroke-miterlimit="10"/>
<path d="M146.293 114.461C146.999 110.927 146.837 105.78 141.058 103.273C144.148 98.3047 142.695 94.7922 139.902 93.546C139.883 92.2503 139.544 89.6212 137.27 88.2101C137.571 85.7648 138.061 76.0448 127.083 74.9565C125.795 72.7326 121.764 66.7112 115.197 65.0433V56.3269C113.614 59.6509 103.659 61.5497 103.659 61.5497C92.2477 63.1445 89.6881 69.5947 89.1112 72.4122C87.6419 72.457 86.3492 72.6478 85.6216 73.1048C83.2292 74.6007 66.1529 79.0649 67.4904 90.9004C67.2549 90.9805 67.0336 91.0606 66.8052 91.136C66.8052 91.136 57.4641 98.5921 59.9765 104.522L59.0346 104.59C59.0346 104.59 53.6188 107.94 55.2836 114.541C55.0627 114.781 54.9041 115.072 54.822 115.388C54.7399 115.704 54.7367 116.035 54.8127 116.352L67.6905 159.296C67.7745 159.595 67.957 159.858 68.2086 160.04C68.7902 160.446 69.9981 161.254 71.7594 162.234L71.7736 162.302L71.8513 162.286C73.8568 163.393 75.9263 164.38 78.0488 165.242V165.291L78.1265 165.277C79.6194 165.883 81.2559 166.476 83.0243 167.023V167.061H83.102C84.7385 167.562 86.4857 168.024 88.3342 168.415V168.439H88.4119C90.1473 168.804 91.9745 169.106 93.8819 169.322H93.9548C96.3001 169.585 98.6592 169.705 101.019 169.68H101.177C103.386 169.649 105.592 169.492 107.784 169.209H107.862V169.195C109.634 168.966 111.446 168.645 113.299 168.232L113.28 168.415L113.438 168.432L113.461 168.196C115.309 167.775 117.193 167.25 119.112 166.62H119.19V166.582C120.785 166.053 122.401 165.445 124.038 164.759L124.116 164.773V164.721C126.014 163.919 127.937 162.999 129.885 161.963L129.963 161.979L129.977 161.913C131.076 161.324 132.183 160.696 133.3 160.029C133.595 159.85 133.813 159.568 133.912 159.237L146.747 116.26C146.822 115.944 146.818 115.613 146.736 115.298C146.654 114.983 146.496 114.693 146.276 114.454L146.293 114.461Z" fill="url(#paint0_linear)"/>
<path d="M126.56 77.1426C126.56 77.1426 120.768 65.2459 109.79 66.4662C98.8126 67.6865 110.553 78.9731 110.553 78.9731C110.553 78.9731 123.97 80.0402 126.56 77.1426Z" fill="#4478DA"/>
<path opacity="0.1" d="M126.56 77.1426C126.56 77.1426 120.768 65.2459 109.79 66.4662C98.8126 67.6865 110.553 78.9731 110.553 78.9731C110.553 78.9731 123.97 80.0402 126.56 77.1426Z" fill="black"/>
<path d="M89.3632 75.159C89.3632 75.159 89.3632 75.0036 89.3915 74.7303C89.5869 72.8245 91.148 65.1493 103.541 63.4225C103.541 63.4225 113.146 61.5921 114.669 58.3882V68.1506C114.669 68.1506 112.686 75.0153 102.778 77.3028C92.8693 79.5903 89.3632 75.159 89.3632 75.159Z" fill="#4478DA"/>
<path d="M60.5487 104.901C60.5487 104.901 53.374 109.325 58.413 118.018C63.4521 126.711 143.484 118.018 143.484 118.018C143.484 118.018 148.664 107.341 139.368 103.527C130.071 99.7134 60.5487 104.901 60.5487 104.901Z" fill="#784F69"/>
<path opacity="0.1" d="M138.555 94.559C138.536 93.3104 138.209 90.7897 136.017 89.4186C136.306 87.0629 136.782 77.6939 126.2 76.6456C124.957 74.5018 121.076 68.6877 114.744 67.0928V58.685C113.221 61.8889 103.616 63.7193 103.616 63.7193C92.6197 65.2577 90.152 71.4722 89.5987 74.1861C88.1858 74.2285 86.9379 74.4217 86.2362 74.8528C83.9309 76.2945 67.4739 80.5962 68.7525 92.0029C68.5312 92.0783 68.3122 92.1584 68.0932 92.2385C68.0932 92.2385 55.1188 102.604 64.5258 108.331C64.5258 108.331 68.8561 116.644 81.5103 110.237L81.5503 110.211C86.3162 111.58 99.0857 114.451 106.666 108.71L107.209 108.298C110.223 110.095 117.365 113.382 123.436 108.71L123.487 108.67C125.842 110.887 130.634 113.709 136.394 107.947C143.29 101.054 141.951 96.0808 138.555 94.559Z" fill="black"/>
<path d="M121.834 106.578C121.834 106.578 128.086 115.881 136.318 107.645C144.55 99.4095 141.044 93.9182 136.318 93.7651C131.592 93.6119 121.834 106.578 121.834 106.578Z" fill="#4478DA"/>
<path opacity="0.15" d="M121.834 106.578C121.834 106.578 128.086 115.881 136.318 107.645C144.55 99.4095 141.044 93.9182 136.318 93.7651C131.592 93.6119 121.834 106.578 121.834 106.578Z" fill="black"/>
<path d="M138.454 94.9877C138.454 94.9877 139.977 82.0309 120.323 91.937C100.668 101.843 105.686 107.038 105.686 107.038C105.686 107.038 115.444 114.512 123.37 108.411C131.296 102.309 136.165 100.479 138.454 94.9877Z" fill="#4478DA"/>
<path opacity="0.1" d="M138.454 94.9877C138.454 94.9877 139.977 82.0309 120.323 91.937C100.668 101.843 105.686 107.038 105.686 107.038C105.686 107.038 115.444 114.512 123.37 108.411C131.296 102.309 136.165 100.479 138.454 94.9877Z" fill="black"/>
<path d="M123.36 91.0206C123.36 91.0206 115.889 85.8378 104.457 91.0206C93.0247 96.2033 79.6053 109.325 79.6053 109.325C79.6053 109.325 97.1384 115.587 106.59 108.409C116.042 101.231 122.904 95.9018 123.36 91.0206Z" fill="#4478DA"/>
<path opacity="0.07" d="M123.36 91.0206C123.36 91.0206 115.889 85.8378 104.457 91.0206C93.0247 96.2033 79.6053 109.325 79.6053 109.325C79.6053 109.325 97.1384 115.587 106.59 108.409C116.042 101.231 122.904 95.9018 123.36 91.0206Z" fill="black"/>
<path d="M107.963 90.2596C107.963 90.2596 92.7163 88.1253 85.704 92.394C78.6917 96.6627 64.4411 108.029 64.4411 108.029C64.4411 108.029 68.7713 116.343 81.4255 109.935C81.4349 109.933 107.657 93.6143 107.963 90.2596Z" fill="#4478DA"/>
<path opacity="0.03" d="M107.963 90.2596C107.963 90.2596 92.7163 88.1253 85.704 92.394C78.6917 96.6627 64.4411 108.029 64.4411 108.029C64.4411 108.029 68.7713 116.343 81.4255 109.935C81.4349 109.933 107.657 93.6143 107.963 90.2596Z" fill="black"/>
<path d="M68.0178 91.937C68.0178 91.937 54.4501 102.774 65.1216 108.411C65.1216 108.411 87.6843 93.6166 88.1434 91.937C88.1434 91.937 77.6274 88.2761 68.0178 91.937Z" fill="#4478DA"/>
<path d="M97.5952 74.5489C97.5952 74.5489 88.6003 73.0247 86.1608 74.5489C83.7213 76.0731 65.4277 80.8035 69.0845 93.7674L74.5663 91.7933C74.5663 91.7933 85.0941 78.5137 97.5952 74.5489Z" fill="#4478DA"/>
<path opacity="0.1" d="M97.5952 74.5489C97.5952 74.5489 88.6003 73.0247 86.1608 74.5489C83.7213 76.0731 65.4277 80.8035 69.0845 93.7674L74.5663 91.7933C74.5663 91.7933 85.0941 78.5137 97.5952 74.5489Z" fill="black"/>
<path d="M112.536 76.5325C112.536 76.5325 106.133 70.5841 91.9534 76.0754C77.7734 81.5668 73.0498 91.4799 73.0498 91.4799L94.3175 93.0819C94.3175 93.0819 106.284 75.9223 112.536 76.5325Z" fill="#4478DA"/>
<path opacity="0.07" d="M112.536 76.5325C112.536 76.5325 106.133 70.5841 91.9534 76.0754C77.7734 81.5668 73.0498 91.4799 73.0498 91.4799L94.3175 93.0819C94.3175 93.0819 106.284 75.9223 112.536 76.5325Z" fill="black"/>
<path d="M122.444 77.2934C122.444 77.2934 112.23 73.9388 104.313 78.5137C96.3967 83.0886 93.4816 92.0878 93.4816 92.0878L106.136 91.4776C106.136 91.4776 116.042 75.9223 122.444 77.2934Z" fill="#4478DA"/>
<path opacity="0.03" d="M122.444 77.2934C122.444 77.2934 112.23 73.9388 104.313 78.5137C96.3967 83.0886 93.4816 92.0878 93.4816 92.0878L106.136 91.4776C106.136 91.4776 116.042 75.9223 122.444 77.2934Z" fill="black"/>
<path d="M135.861 89.6495C135.861 89.6495 139.368 71.8044 116.195 77.2958C116.195 77.2958 103.025 88.8886 106.715 92.0901C110.405 95.2916 135.861 89.6495 135.861 89.6495Z" fill="#4478DA"/>
<path opacity="0.1" d="M56.468 115.933L68.8773 157.317C68.9634 157.603 69.1434 157.852 69.3883 158.024C72.852 160.448 99.5025 177.648 132.139 158.024C132.423 157.852 132.633 157.579 132.727 157.261L145.097 115.846C145.164 115.62 145.17 115.38 145.115 115.151C145.06 114.922 144.945 114.711 144.782 114.541C144.619 114.371 144.414 114.246 144.188 114.181C143.961 114.116 143.722 114.111 143.493 114.169L138.12 115.511C137.935 115.558 137.742 115.564 137.554 115.53L132.504 114.588C132.206 114.533 131.899 114.58 131.632 114.722L125.637 117.921C125.348 118.075 125.013 118.117 124.695 118.039L118.246 116.435C118.002 116.374 117.746 116.383 117.507 116.461L110.016 118.913C109.849 118.968 109.672 118.989 109.496 118.976C109.32 118.962 109.149 118.913 108.992 118.833L104.031 116.293C103.717 116.132 103.352 116.102 103.016 116.209L96.618 118.251C96.4568 118.302 96.2874 118.322 96.1188 118.31L89.9589 117.879C89.8665 117.873 89.7749 117.857 89.6858 117.832L84.7974 116.435C84.5912 116.376 84.374 116.368 84.164 116.411L77.3919 117.787C77.1381 117.839 76.8747 117.816 76.6337 117.721L70.0405 115.108C69.8095 115.017 69.5575 114.992 69.3129 115.035L64.0643 115.978C63.8522 116.016 63.6341 116.002 63.4285 115.938L58.1399 114.275C57.9089 114.203 57.6629 114.196 57.4283 114.254C57.1936 114.312 56.979 114.433 56.8074 114.603C56.6358 114.773 56.5136 114.987 56.4538 115.221C56.3941 115.455 56.399 115.701 56.468 115.933Z" fill="black"/>
<path d="M56.468 116.237L68.8773 157.621C68.9634 157.907 69.1434 158.156 69.3883 158.328C72.852 160.752 99.5025 177.951 132.139 158.328C132.423 158.156 132.633 157.883 132.727 157.564L145.097 116.15C145.164 115.924 145.17 115.684 145.115 115.455C145.06 115.226 144.945 115.015 144.782 114.845C144.619 114.675 144.414 114.55 144.188 114.485C143.961 114.42 143.722 114.415 143.493 114.472L138.124 115.822C137.939 115.869 137.747 115.875 137.559 115.841L132.508 114.899C132.211 114.844 131.904 114.891 131.637 115.033L125.642 118.232C125.353 118.386 125.018 118.428 124.7 118.35L118.253 116.739C118.009 116.678 117.753 116.686 117.514 116.765L110.023 119.217C109.856 119.272 109.679 119.293 109.503 119.279C109.327 119.266 109.156 119.217 108.999 119.137L104.038 116.593C103.724 116.431 103.359 116.401 103.023 116.508L96.6251 118.55C96.4639 118.601 96.2945 118.621 96.1259 118.609L89.9589 118.178C89.8665 118.172 89.7749 118.156 89.6858 118.131L84.7974 116.734C84.5912 116.675 84.374 116.667 84.164 116.71L77.3919 118.091C77.1381 118.143 76.8747 118.12 76.6337 118.025L70.0405 115.412C69.8095 115.321 69.5575 115.296 69.3129 115.339L64.0643 116.282C63.8522 116.32 63.6341 116.306 63.4285 116.242L58.1399 114.578C57.9089 114.507 57.6629 114.5 57.4283 114.558C57.1936 114.616 56.979 114.736 56.8074 114.907C56.6358 115.077 56.5136 115.291 56.4538 115.525C56.3941 115.759 56.399 116.005 56.468 116.237Z" fill="#4D4981"/>
<path opacity="0.5" d="M70.0806 101.483L68.7831 101.03L68.0555 99.8642L71.2909 95.8122L72.5883 96.2646L73.3159 97.4307L70.0806 101.483Z" fill="white"/>
<path opacity="0.5" d="M131.522 108.347L130.222 107.895L129.497 106.729L132.73 102.677L134.027 103.127L134.755 104.293L131.522 108.347Z" fill="white"/>
<path opacity="0.5" d="M104.537 86.2289L103.239 85.7789L102.512 84.6128L105.745 80.5585L107.045 81.0108L107.77 82.1769L104.537 86.2289Z" fill="white"/>
<path opacity="0.5" d="M111.82 101.132L110.565 101.688L109.237 101.334L108.829 96.1633L110.085 95.6073L111.413 95.9607L111.82 101.132Z" fill="white"/>
<path opacity="0.5" d="M90.6748 88.4386L89.8082 89.5058L88.4637 89.7908L85.7605 85.3667L86.6294 84.2995L87.9739 84.0145L90.6748 88.4386Z" fill="white"/>
<path opacity="0.5" d="M89.1513 100.946L88.2824 102.013L86.9402 102.298L84.237 97.8736L85.1035 96.8064L86.4481 96.5213L89.1513 100.946Z" fill="white"/>
<path opacity="0.5" d="M126.438 102.163L125.442 103.11L124.071 103.221L121.957 98.4861L122.955 97.539L124.323 97.4283L126.438 102.163Z" fill="white"/>
<path opacity="0.5" d="M119.645 85.9368L119.981 84.6034L121.079 83.7789L125.397 86.6482L125.06 87.9816L123.963 88.8085L119.645 85.9368Z" fill="white"/>
<path opacity="0.5" d="M73.7398 87.9086L72.4423 87.4563L71.7147 86.2902L74.9501 82.2382L76.2475 82.6881L76.9751 83.8543L73.7398 87.9086Z" fill="#FD6F8D"/>
<path opacity="0.5" d="M90.0767 80.29L89.7588 78.9542L90.3522 77.7127L95.5066 78.2616L95.8245 79.5997L95.2311 80.8412L90.0767 80.29Z" fill="#FD6F8D"/>
<path opacity="0.5" d="M115.055 72.6855L115.312 71.3356L116.36 70.4451L120.838 73.0553L120.582 74.4052L119.534 75.2957L115.055 72.6855Z" fill="#FD6F8D"/>
<path opacity="0.5" d="M105.069 65.8749L106.409 65.5686L107.643 66.1741L107.042 71.3262L105.702 71.6301L104.469 71.0246L105.069 65.8749Z" fill="#FD6F8D"/>
<path opacity="0.5" d="M95.8716 106.526L95.5537 105.188L96.1447 103.947L101.299 104.496L101.617 105.834L101.026 107.075L95.8716 106.526Z" fill="#FD6F8D"/>
<path opacity="0.5" d="M76.8126 107.504L76.0003 106.394L76.0615 105.023L81.0228 103.518L81.8376 104.628L81.774 106.001L76.8126 107.504Z" fill="#FD6F8D"/>
<path opacity="0.5" d="M130.168 98.3164L129.04 97.532L128.656 96.2104L132.864 93.1832L133.992 93.9677L134.376 95.2869L130.168 98.3164Z" fill="#FD6F8D"/>
<path opacity="0.5" d="M94.4941 99.3836L93.3662 98.5991L92.98 97.2799L97.1879 94.2504L98.3158 95.0348L98.7019 96.3541L94.4941 99.3836Z" fill="#FD6F8D"/>
<path opacity="0.1" d="M69.3223 115.035L64.0737 115.978C63.8617 116.016 63.6435 116.002 63.4379 115.938L63.3508 115.909L72.9038 160.198L63.3508 115.909L58.1493 114.275C57.9188 114.203 57.6732 114.195 57.4386 114.251C57.2039 114.308 56.9891 114.427 56.8168 114.597C56.6446 114.766 56.5214 114.979 56.4604 115.212C56.3994 115.446 56.4028 115.692 56.4704 115.924L68.8796 157.308C68.9658 157.594 69.1458 157.843 69.3906 158.014C70.4761 158.775 73.8434 160.987 78.9578 163.061L69.7061 115.002C69.5773 114.995 69.448 115.006 69.3223 115.035Z" fill="black"/>
<path opacity="0.1" d="M143.498 114.173L138.124 115.516C137.939 115.563 137.747 115.569 137.559 115.535L132.508 114.593C132.353 114.565 132.193 114.565 132.037 114.593L123.207 162.58L132.033 114.595C131.894 114.619 131.761 114.665 131.637 114.732L125.642 117.931C125.369 118.076 125.053 118.122 124.75 118.06L118.458 164.366C122.045 163.174 125.523 161.677 128.854 159.89L138.482 115.424L128.851 159.876C129.941 159.294 131.04 158.672 132.148 158.01C132.432 157.837 132.642 157.565 132.737 157.246L145.106 115.832C145.169 115.606 145.173 115.369 145.115 115.142C145.058 114.915 144.942 114.707 144.779 114.539C144.616 114.371 144.412 114.249 144.187 114.185C143.962 114.121 143.725 114.117 143.498 114.173Z" fill="black"/>
<path d="M124.691 118.046L118.246 116.435C118.122 116.404 117.994 116.391 117.867 116.397L112.948 165.902C114.753 165.492 116.593 164.98 118.467 164.366L124.759 118.06L124.691 118.046Z" fill="#4D4981"/>
<g opacity="0.5">
<path opacity="0.5" d="M63.4263 116.194L63.2767 116.227L72.8297 160.506L72.9793 160.474L63.4263 116.194Z" fill="white"/>
<path opacity="0.5" d="M77.0961 118.151L76.9446 118.173L83.6933 165.086L83.8448 165.064L77.0961 118.151Z" fill="white"/>
<path opacity="0.5" d="M69.7627 115.267L69.6124 115.296L78.8721 163.403L79.0224 163.374L69.7627 115.267Z" fill="white"/>
<path opacity="0.5" d="M84.5601 116.639L84.4076 116.653L88.8028 166.413L88.9553 166.4L84.5601 116.639Z" fill="white"/>
<path opacity="0.5" d="M92.8607 118.384L92.7077 118.389L94.1409 167.276L94.2939 167.272L92.8607 118.384Z" fill="white"/>
<path opacity="0.5" d="M100.843 117.23L100.69 117.231L101.015 167.623L101.168 167.622L100.843 117.23Z" fill="white"/>
<path opacity="0.5" d="M109.423 119.392L107.463 167.162L107.616 167.169L109.576 119.398L109.423 119.392Z" fill="white"/>
<path opacity="0.5" d="M117.805 116.634L112.823 166.394L112.975 166.409L117.957 116.65L117.805 116.634Z" fill="white"/>
<path opacity="0.5" d="M123.716 117.334L117.587 164.026L117.739 164.046L123.867 117.354L123.716 117.334Z" fill="white"/>
<path opacity="0.5" d="M131.974 114.787L123.113 162.854L123.264 162.882L132.125 114.815L131.974 114.787Z" fill="white"/>
<path opacity="0.5" d="M138.396 115.71L128.794 160.181L128.943 160.214L138.546 115.742L138.396 115.71Z" fill="white"/>
</g>
<path d="M11.677 150.712C13.0898 150.24 15.209 149.703 16.8785 149.894C18.4656 149.315 22.2001 147.802 24.7503 145.562C24.6759 143.343 24.7317 141.121 24.9174 138.909C26.2219 124.068 23.288 114.293 23.288 114.293C23.288 114.293 20.9851 106.833 21.237 100.642C21.0887 100.922 21.0016 101.089 21.0016 101.089C20.7991 95.7486 18.9812 90.222 17.6202 86.7802C17.5679 86.765 17.5168 86.7461 17.4672 86.7236L15.9154 83.1098C15.7942 82.8995 15.6978 82.6758 15.6281 82.4432L15.3927 81.8707L15.4657 81.8401C15.4421 81.7458 15.4162 81.6469 15.3927 81.5456C14.4202 77.43 13.6785 67.67 13.6785 67.67C11.0671 57.3988 17.26 51.0382 17.26 51.0382L27.769 41.9896C27.7168 42.1072 27.6819 42.2318 27.6654 42.3594L27.7525 42.284C27.9008 41.86 28.0633 41.3417 28.2234 40.7669C27.8485 40.5016 27.4971 40.2045 27.1732 39.8788C25.9787 38.7497 25.1571 37.2826 24.8185 35.6737C24.5642 34.4228 24.6137 33.1342 24.6655 31.8597L24.8397 27.4968C24.8475 26.6425 24.9342 25.7908 25.0988 24.9525C25.8923 21.4801 29.4385 19.063 32.9964 18.9099C34.129 18.8628 35.2593 19.0065 36.3872 19.0913C37.3035 19.1665 38.2235 19.1862 39.1422 19.1502C39.2468 19.1561 39.3506 19.1289 39.4389 19.0725C39.5197 18.9927 39.5661 18.8845 39.5684 18.7709C39.5864 18.5685 39.5631 18.3645 39.5 18.1714C39.4368 17.9782 39.3351 17.7999 39.201 17.6472C39.0635 17.5261 38.9035 17.4333 38.7301 17.3739L38.9844 17.4352C38.8593 17.3372 38.7184 17.2615 38.5676 17.2114C39.4765 17.4258 40.4066 17.6496 41.1884 18.1537C41.4122 18.3009 41.6177 18.474 41.8006 18.6696C42.2847 19.0946 42.5991 19.6802 42.686 20.3187C43.0934 19.9206 43.4842 19.4824 43.6279 18.9358C43.682 18.7161 43.682 18.4865 43.6279 18.2668C43.6891 18.3437 43.7487 18.4223 43.8068 18.5024C43.8068 18.4788 43.8068 18.4552 43.7903 18.4317C44.4546 19.2581 44.9224 20.2248 45.1584 21.2586C45.2512 21.1467 45.3209 21.0174 45.3633 20.8783C45.4058 20.7391 45.4202 20.593 45.4057 20.4482C45.4575 20.6084 45.5069 20.771 45.5517 20.9359C45.5728 20.8289 45.5784 20.7194 45.5681 20.6108C45.9759 21.8589 46.16 23.1692 46.1121 24.4814C46.1121 25.7912 45.5328 27.8289 44.1294 28.2883C44.0588 28.3119 43.9834 28.3307 43.9081 28.3472C44.696 29.5715 45.1679 30.9722 45.2816 32.4239C45.3952 33.8755 45.1469 35.3327 44.559 36.6647C43.9711 37.9968 43.062 39.162 41.9132 40.056C40.7644 40.95 39.4117 41.5447 37.9766 41.787C37.9546 41.944 37.9326 42.1113 37.9107 42.2888H37.8542C37.8165 42.6421 37.7859 43.0143 37.7623 43.403C38.1154 43.7498 38.5019 44.0607 38.9161 44.3312C40.0849 45.0293 41.3897 45.4687 42.7425 45.6198C44.365 45.7443 45.9424 46.2133 47.3695 46.9956C49.046 47.9379 50.9015 49.3019 51.4784 50.9628C52.4486 53.7355 57.7796 58.0301 61.3682 58.5649L62.6397 58.4919L62.7315 58.4636V58.4871L63.0424 58.4683H63.0612H63.1436V58.4871L63.4662 58.4683C63.4662 58.4683 63.4992 58.6167 63.5416 58.8806C65.3429 58.2634 69.1646 56.5436 74.1377 52.0299C79.6807 47.0003 87.1616 47.9898 90.0461 48.6235C90.1442 48.6452 90.2334 48.6963 90.3018 48.77C90.3702 48.8437 90.4145 48.9365 90.4288 49.036C90.4431 49.1356 90.4268 49.2371 90.382 49.3271C90.3372 49.4171 90.266 49.4914 90.1779 49.5399C89.0147 50.1806 87.2063 51.1112 86.3586 51.2148C86.3586 51.2148 88.1058 53.0241 86.2503 53.99C86.028 54.0994 85.7797 54.1448 85.5331 54.1211C85.2865 54.0973 85.0513 54.0055 84.8539 53.8557C83.9615 53.2031 81.4797 54.6826 77.8864 55.4529C77.8864 55.4529 67.7423 65.955 62.7104 67.5805C62.5924 67.8055 62.4627 68.0241 62.3218 68.2354L62.011 68.2095L61.9945 68.2354H61.9521L61.9145 68.5652C61.9145 68.5652 54.0851 68.1529 51.5538 65.3095C51.3727 65.148 51.2065 64.9706 51.0569 64.7795L53.779 99.0515H53.7531L53.779 99.3766H51.7775C51.6031 103.596 51.7827 107.822 52.3144 112.011V134.344C52.3144 134.344 52.418 136.311 48.3373 139.173C44.0467 142.152 39.9119 145.35 35.9492 148.754L35.4547 149.183C36.2059 156.014 37.7765 168.755 39.0857 169.23L38.278 169.372C39.6696 171.127 43.5902 175.942 44.7887 176.076C46.2557 176.239 47.2329 178.522 44.7887 179.012C42.5329 179.464 36.6697 180.053 30.272 177.579C29.8096 177.399 29.4209 177.07 29.1681 176.642C28.9154 176.215 28.8132 175.716 28.878 175.223L29.349 171.624C29.2592 171.674 29.1869 171.75 29.1418 171.843C28.8168 172.821 29.1418 170.538 29.1418 170.538C27.8018 166.227 26.7493 161.833 25.9912 157.383L21.1593 161.572C21.1593 161.572 21.0604 161.452 20.8933 161.235C19.7159 163.93 17.5967 169.435 18.0676 173.473C18.7199 179.016 12.527 174.126 13.1793 170.865C13.7067 168.227 11.3544 157.051 10.436 152.881C10.3362 152.43 10.408 151.958 10.6375 151.556C10.8669 151.155 11.2375 150.854 11.677 150.712Z" fill="url(#paint1_linear)"/>
<path d="M62.2724 60.2728C62.2724 60.2728 66.8876 59.4766 73.728 53.2691C79.1438 48.3573 86.4434 49.3255 89.269 49.9427C89.3691 49.9577 89.4616 50.0045 89.533 50.0763C89.6044 50.148 89.6507 50.2408 89.6653 50.341C89.6798 50.4412 89.6617 50.5433 89.6137 50.6324C89.5656 50.7215 89.4902 50.7927 89.3985 50.8355C88.2612 51.4598 86.4952 52.3692 85.6687 52.4728C85.6687 52.4728 87.3735 54.2397 85.5627 55.1843C85.3456 55.291 85.1031 55.3351 84.8623 55.3118C84.6216 55.2885 84.392 55.1987 84.1993 55.0524C83.3281 54.4163 80.9028 55.8604 77.3966 56.6119C77.3966 56.6119 63.7134 70.7796 60.5322 68.3909L62.2724 60.2728Z" fill="#FEC3BE"/>
<path d="M38.723 41.0119C38.723 41.0119 37.4491 46.4302 38.723 50.2442L32.9964 51.0381L27.9055 48.4939V45.1487C27.9055 45.1487 30.2932 40.0555 29.6551 34.166L38.723 41.0119Z" fill="#FEC3BE"/>
<path d="M22.4944 158.33C22.4944 158.33 18.3572 166.448 18.9953 171.859C19.6335 177.271 13.5795 172.495 14.2224 169.313C14.738 166.738 12.4399 155.824 11.5451 151.753C11.4466 151.313 11.5156 150.852 11.7385 150.46C11.9614 150.068 12.3222 149.773 12.7507 149.633C14.6651 149.004 17.8651 148.219 19.4757 149.411C21.8587 151.159 22.4944 158.33 22.4944 158.33Z" fill="#8B416F"/>
<path d="M38.2474 167.242C38.2474 167.242 43.6632 174.246 45.0901 174.406C46.5171 174.566 47.4778 176.795 45.0901 177.271C42.8885 177.711 37.1619 178.288 30.9149 175.871C30.4627 175.696 30.0827 175.373 29.8359 174.955C29.5891 174.537 29.4897 174.048 29.5538 173.567L30.451 166.764L38.2474 167.242Z" fill="#8B416F"/>
<path d="M47.1576 92.9052L52.3379 93.5978C52.3379 93.5978 51.1276 102.295 52.3991 111.848V133.656C52.3991 133.656 52.5004 135.576 48.5162 138.367C44.3372 141.277 40.3101 144.4 36.4507 147.722L22.0117 160.236C22.0117 160.236 16.2827 153.232 17.0786 149.093C17.0786 149.093 26.6246 146.068 27.8985 141.133C28.6284 138.306 32.33 135.95 35.3605 134.454C39.2646 132.525 41.3933 128.141 40.3242 123.919C40.1476 123.203 39.8743 122.514 39.5119 121.872C36.9664 117.415 33.3072 107.386 33.3072 107.386L40.3077 94.0148L47.1576 92.9052Z" fill="#4D4981"/>
<path opacity="0.05" d="M47.1576 92.9052L52.3379 93.5978C52.3379 93.5978 51.1276 102.295 52.3991 111.848V133.656C52.3991 133.656 52.5004 135.576 48.5162 138.367C44.3372 141.277 40.3101 144.4 36.4507 147.722L22.0117 160.236C22.0117 160.236 16.2827 153.232 17.0786 149.093C17.0786 149.093 26.6246 146.068 27.8985 141.133C28.6284 138.306 32.33 135.95 35.3605 134.454C39.2646 132.525 41.3933 128.141 40.3242 123.919C40.1476 123.203 39.8743 122.514 39.5119 121.872C36.9664 117.415 33.3072 107.386 33.3072 107.386L40.3077 94.0148L47.1576 92.9052Z" fill="black"/>
<path d="M39.5189 167.72C39.5189 167.72 30.1307 169.313 29.8128 170.267C29.495 171.221 29.8128 168.992 29.8128 168.992C29.8128 168.992 24.397 152.596 25.6756 138.11C26.9542 123.625 24.0839 114.081 24.0839 114.081C24.0839 114.081 20.7425 103.257 22.6522 97.049C24.5619 90.8415 44.6098 93.546 44.6098 93.546C44.6098 93.546 37.6093 109.933 37.7694 117.738C37.7694 117.738 36.9735 141.295 35.5418 144.002C35.5418 144.002 37.7694 167.084 39.5189 167.72Z" fill="#4D4981"/>
<path d="M38.4051 45.1487C38.4051 45.1487 37.4515 51.0382 27.9032 48.4915L34.2609 96.8818C34.2609 96.8818 52.717 97.5178 52.5592 95.2893L48.747 66.0045L38.4051 45.1487Z" fill="white"/>
<path opacity="0.1" d="M38.1673 44.833C38.1673 44.833 39.9757 46.7742 42.7637 47.0168C44.3475 47.1392 45.8872 47.5977 47.28 48.362C48.9283 49.2784 50.7249 50.6117 51.283 52.2372C52.3968 55.4199 59.3973 60.6733 62.5856 59.559L61.4718 69.1094C61.4718 69.1094 52.4038 68.6382 50.8121 65.1305L53.5176 99.1951H51.1346C51.1346 99.1951 49.8608 89.9628 48.9071 88.0523C47.9534 86.1417 46.0438 75.6373 45.8837 73.0883C45.7235 70.5393 43.3382 55.8911 41.2685 53.3492L38.165 45.7871L38.1673 44.833Z" fill="black"/>
<path opacity="0.1" d="M38.1673 45.3112C38.1673 45.3112 40.2865 47.0945 43.0816 47.3348C44.6656 47.4579 46.2052 47.9173 47.5979 48.6823C49.2462 49.5988 51.0428 50.9321 51.6009 52.5576C52.7146 55.7403 59.7152 60.9937 62.9034 59.8794L61.7896 69.4298C61.7896 69.4298 52.7217 68.9586 51.1299 65.4508L53.8449 99.5108H51.4525C51.4525 99.5108 50.1786 90.2785 49.225 88.368C48.2713 86.4574 46.3617 75.9529 46.2016 73.404C46.0414 70.855 43.6561 56.2067 41.5863 53.6648L38.165 46.263L38.1673 45.3112Z" fill="black"/>
<path d="M38.1673 44.9932C38.1673 44.9932 40.2865 46.7765 43.0816 47.0168C44.6654 47.1392 46.205 47.5977 47.5979 48.362C49.2462 49.2784 51.0428 50.6117 51.6009 52.2372C52.7146 55.4199 59.7152 60.6733 62.9034 59.559L61.7896 69.1094C61.7896 69.1094 52.7217 68.6382 51.1299 65.1305L53.8449 99.1928H51.4525C51.4525 99.1928 50.1786 89.9604 49.225 88.0499C48.2713 86.1394 46.3617 75.6349 46.2016 73.0859C46.0414 70.537 43.6561 55.8887 41.5863 53.3468L38.165 45.9449L38.1673 44.9932Z" fill="#FD6F8D"/>
<path opacity="0.1" d="M30.0624 38.8634C30.2697 37.3557 29.8552 36.4134 29.6645 34.6442L38.7325 41.4901C38.7325 41.4901 38.5158 42.4159 38.351 43.7682C37.8986 43.8413 37.4412 43.8783 36.9829 43.8789C33.8088 43.8789 31.5436 41.4124 30.0624 38.8634Z" fill="black"/>
<path d="M36.9735 43.4007C41.7189 43.4007 45.5658 39.552 45.5658 34.8044C45.5658 30.0568 41.7189 26.2081 36.9735 26.2081C32.2281 26.2081 28.3812 30.0568 28.3812 34.8044C28.3812 39.552 32.2281 43.4007 36.9735 43.4007Z" fill="#FEC3BE"/>
<path opacity="0.1" d="M46.3499 26.3801C46.4005 24.929 46.1603 23.4824 45.6435 22.1256C45.783 22.3382 45.8414 22.5939 45.8081 22.846C45.7748 23.0981 45.652 23.3299 45.4622 23.499C45.1846 22.0201 44.4254 20.6748 43.3029 19.6732C43.9151 19.7721 44.2283 20.5331 44.08 21.1361C43.9316 21.7392 43.4654 22.2033 43.018 22.6321C43.0698 21.7204 42.4694 20.8723 41.7064 20.3705C40.9435 19.8687 40.0346 19.6638 39.1469 19.4423C39.4555 19.552 39.7192 19.7607 39.8968 20.036C40.0744 20.3113 40.156 20.6376 40.1288 20.9642C40.1266 21.0752 40.0809 21.1809 40.0016 21.2586C39.9157 21.3144 39.8143 21.3416 39.712 21.3364C38.8153 21.3718 37.9173 21.3529 37.0229 21.2798C35.9238 21.156 34.8183 21.097 33.7122 21.1031C30.2367 21.2492 26.7753 23.6121 26.0006 26.9926C25.8403 27.8108 25.756 28.642 25.7486 29.4756L25.5885 33.7467C25.5391 34.9905 25.4896 36.2509 25.7392 37.4712C25.979 38.6075 26.4665 39.6768 27.167 40.6028C27.8675 41.5288 28.7637 42.2887 29.7917 42.8282C31.0397 41.019 31.1503 38.6938 31.5836 36.5383C31.6508 36.0388 31.8356 35.5624 32.1228 35.1484C32.436 34.7573 32.987 34.5099 33.4532 34.696C33.9194 34.8822 34.122 35.596 33.7334 35.914C34.0678 36.3215 34.7271 36.0176 35.1109 35.6549C36.2031 34.6191 36.9553 33.2759 37.2678 31.8031C37.4232 31.0611 37.5786 30.1541 38.2945 29.8973C38.545 29.8284 38.8069 29.8107 39.0645 29.8455C40.5785 29.9491 42.9474 30.5758 44.4167 30.0952C45.7848 29.6476 46.3499 27.6593 46.3499 26.3801Z" fill="black"/>
<path d="M46.1921 26.2199C46.2427 24.7688 46.0026 23.3222 45.4857 21.9654C45.6252 22.178 45.6836 22.4337 45.6503 22.6858C45.617 22.9379 45.4943 23.1697 45.3044 23.3388C45.0269 21.8599 44.2676 20.5146 43.1451 19.513C43.7574 19.6119 44.0705 20.3729 43.9222 20.9759C43.7738 21.579 43.3076 22.0431 42.8602 22.4719C42.912 21.5602 42.3116 20.7121 41.5487 20.2103C40.7857 19.7085 39.8768 19.5036 38.9891 19.2821C39.2977 19.3918 39.5614 19.6005 39.739 19.8758C39.9166 20.1511 39.9982 20.4774 39.971 20.804C39.9688 20.915 39.9231 21.0207 39.8439 21.0984C39.7579 21.1542 39.6565 21.1814 39.5542 21.1762C38.6576 21.2116 37.7596 21.1927 36.8652 21.1196C35.766 20.9958 34.6605 20.9368 33.5545 20.943C30.0789 21.089 26.6175 23.4519 25.8428 26.8324C25.681 27.6543 25.5959 28.4895 25.5885 29.3272L25.419 33.5865C25.3695 34.8303 25.3201 36.0907 25.5697 37.311C25.8094 38.4473 26.2969 39.5166 26.9975 40.4426C27.698 41.3686 28.5942 42.1285 29.6221 42.668C30.8701 40.8588 30.9808 38.5336 31.414 36.3781C31.4812 35.8786 31.6661 35.4022 31.9533 34.9882C32.2664 34.5971 32.8174 34.3497 33.2837 34.5358C33.7499 34.722 33.9524 35.4358 33.5639 35.7538C33.8982 36.1613 34.5576 35.8574 34.9414 35.4947C36.0336 34.4589 36.7857 33.1157 37.0983 31.6429C37.2537 30.9009 37.4091 29.9939 38.1249 29.7371C38.3755 29.6682 38.6374 29.6505 38.8949 29.6853C40.409 29.7889 42.7778 30.4156 44.2471 29.935C45.6246 29.4897 46.1921 27.4991 46.1921 26.2199Z" fill="#FAD375"/>
<path opacity="0.1" d="M63.3061 59.5567C63.3061 59.5567 64.58 65.4461 62.1923 69.107L60.8407 68.9963L61.5777 59.6556L63.3061 59.5567Z" fill="black"/>
<path d="M62.9882 59.5567C62.9882 59.5567 64.2621 65.4461 61.8744 69.107L60.5228 68.9963L61.2598 59.6556L62.9882 59.5567Z" fill="#FD6F8D"/>
<path opacity="0.1" d="M28.7791 43.4808L18.5244 52.315C18.5244 52.315 12.4776 58.5225 15.023 68.5511C15.023 68.5511 16.1368 83.1946 17.4106 83.833C17.4106 83.833 21.8657 92.7473 22.1836 101.183C22.1836 101.183 28.1504 89.1689 30.856 96.4883C33.5615 103.808 39.8462 104.844 39.8462 104.844L36.3377 61.5473C36.3377 61.5473 27.5076 46.1852 28.7791 43.4808Z" fill="black"/>
<path d="M28.4613 43.4808L18.1995 52.315C18.1995 52.315 12.1526 58.5225 14.698 68.5511C14.698 68.5511 15.8118 83.1946 17.0857 83.833C17.0857 83.833 21.5408 92.7473 21.8587 101.183C21.8587 101.183 28.1434 88.5281 30.8489 95.8499C33.5545 103.172 39.5213 104.844 39.5213 104.844L36.0198 61.5473C36.0198 61.5473 27.1897 46.1852 28.4613 43.4808Z" fill="#FD6F8D"/>
<path d="M23.7683 80.8082C23.7683 80.8082 21.2229 79.0579 17.0857 83.8331L27.2674 102.298L30.6888 97.115C30.6888 97.115 23.4504 82.8766 23.7683 80.8082Z" fill="#FEC3BE"/>
<path opacity="0.1" d="M26.2337 81.8424C26.2337 81.8424 20.6036 88.1701 18.4067 87.1547L16.3722 82.4172L24.0062 79.1356L26.2337 81.8424Z" fill="black"/>
<path d="M26.2337 81.5244C26.2337 81.5244 20.6036 87.852 18.4067 86.8461L16.3722 82.1086L24.0062 78.827L26.2337 81.5244Z" fill="#FD6F8D"/>
<path opacity="0.1" d="M30.345 95.9253C30.345 95.9253 27.6654 101.421 26.2337 101.742L28.3011 104.131L31.3246 98.3895L30.345 95.9253Z" fill="black"/>
<path d="M30.5051 96.0831C30.5051 96.0831 27.8255 101.579 26.3938 101.9L28.4612 104.279L31.4753 98.5567L30.5051 96.0831Z" fill="#4D4981"/>
<path opacity="0.1" d="M25.4378 62.1103C25.4378 62.1103 25.1199 73.5712 26.3915 77.8682L25.4378 62.1103Z" fill="black"/>
<path opacity="0.1" d="M51.2147 64.3318C51.2147 64.3318 49.305 63.6958 49.305 62.1033L51.2147 64.3318Z" fill="black"/>
<g opacity="0.5">
<path opacity="0.5" d="M157.605 64.6122C157.591 66.1175 157.77 67.5098 158.255 68.6005L158.726 75.4323C158.726 75.4323 158.843 75.3663 159.058 75.2627C158.773 77.8541 158.978 82.601 164.064 83.4938C164.178 83.4639 164.284 83.411 164.377 83.3383C164.728 82.6317 165.042 81.9075 165.319 81.1687L165.378 81.1875L165.319 81.4796L165.695 81.5974C163.861 85.574 164.283 93.8475 164.69 94.6579C164.862 94.9971 164.991 95.996 165.088 97.1291C165.268 99.3295 165.189 101.543 164.852 103.725C164.617 105.231 164.546 107.078 165.323 107.846C166.736 109.24 166.578 119.938 166.578 119.938C166.676 120.179 166.785 120.415 166.906 120.645L166.421 120.713C166.421 120.713 166.421 124.899 167.205 127.844C167.657 129.538 167.016 131.745 166.392 133.314C165.529 135.425 165.339 137.751 165.849 139.974C166.308 141.891 167.261 143.804 169.246 144.433C173.643 145.828 174.584 138.544 174.584 138.544C174.584 138.544 174.427 132.963 174.584 132.183C174.634 131.948 174.86 131.279 175.152 130.473C176.213 127.534 176.615 124.397 176.329 121.285L176.148 119.325L175.296 119.448C175.281 119.245 175.27 119.033 175.258 118.812C175.246 118.59 175.237 118.43 175.227 118.23C175.218 118.03 175.208 117.825 175.199 117.613C175.19 117.401 175.18 117.186 175.173 116.967C175.173 116.857 175.169 116.747 175.161 116.635C175.126 115.631 175.095 114.56 175.07 113.499C175.07 113.028 175.048 112.557 175.041 112.098C175.041 111.754 175.029 111.412 175.025 111.082C175.025 110.973 175.025 110.863 175.025 110.753C175.025 110.211 175.011 109.693 175.008 109.214C175.008 109.119 175.008 109.024 175.008 108.932C175.008 108.746 175.008 108.569 175.008 108.399C175.008 108.314 175.008 108.231 175.008 108.149C175.008 107.987 175.008 107.834 175.008 107.678C175.008 107.523 175.008 107.396 175.008 107.271C175.008 107.146 175.008 107.035 175.008 106.922C175.008 106.34 175.032 106.081 175.055 106.295C175.133 107.002 175.369 111.257 175.055 105.824C174.801 101.445 178.743 91.0041 180.271 87.1429C180.759 87.3953 181.23 87.6769 181.684 87.9863C182.207 94.0784 181.488 105.756 181.258 109.188V109.203C181.239 109.469 181.225 109.674 181.213 109.841V109.869L181.201 110.039V110.086V110.135V110.161C181.201 110.161 179.16 122.883 179.16 125.82C179.16 128.089 178.041 131.37 177.528 132.756C176.781 133.081 176.176 133.415 176.176 133.415L176.334 145.043C176.334 145.043 174.608 150.78 180.886 152.174C187.163 153.569 184.495 146.438 184.495 146.438L184.024 141.321L186.221 133.415L185.604 133.29C186.909 129.121 190.403 117.648 190.147 115.123C189.859 112.296 191.27 109.214 191.522 108.691L191.559 108.611C190.213 105.831 194.307 91.1784 196.175 84.8555C198.503 83.7435 200.192 82.8766 200.192 82.8766C200.192 82.8766 200.145 82.7894 200.062 82.641L200.192 82.5751C199.189 80.6925 198.382 78.7119 197.783 76.6644L197.917 76.5278L197.816 76.2427C198.136 75.9341 198.31 75.7527 198.31 75.7527C198.31 75.7527 202.862 76.5278 201.765 74.3581C200.667 72.1884 200.981 68.9398 200.981 68.9398V57.0242L203.178 57.7474C207.31 58.4282 208.049 53.8109 208.028 50.2701C208.034 48.881 207.935 47.4934 207.732 46.1193C207.732 46.1193 204.593 22.0902 199.097 22.8653C193.949 23.5909 189.424 20.5778 188.87 20.1915C188.803 19.9841 188.742 19.78 188.689 19.579C188.997 19.2306 189.273 18.8553 189.513 18.4576C189.685 18.4576 189.859 18.434 190.024 18.4152C190.024 18.3681 190.024 18.3233 190.024 18.2762L190.182 18.2597C190.165 17.7216 190.256 17.1856 190.448 16.6829C190.641 16.1801 190.931 15.7207 191.303 15.3315C191.606 15.0418 191.955 14.8031 192.334 14.6247C193.095 14.269 193.954 14.1536 194.701 13.7719C194.965 13.6338 195.204 13.4513 195.407 13.2325C195.878 12.8084 196.184 12.2171 196.022 11.6282C195.949 11.3667 195.786 11.1264 195.786 10.8555C195.786 10.4785 196.08 10.177 196.257 9.84484C196.775 8.86954 196.304 7.64924 195.657 6.74933C195.009 5.84942 194.178 5.00134 193.94 3.92239C193.844 3.4795 193.851 3.01305 193.705 2.58194C193.234 1.18496 191.43 0.767988 189.937 0.845729C188.444 0.92347 186.843 1.2415 185.553 0.506496C185.308 0.328786 185.044 0.178675 184.766 0.0588962C184.44 -0.0181062 184.101 -0.0181062 183.775 0.0588962C181.891 0.386351 180.156 1.3216 178.595 2.41468C177.965 2.83674 177.376 3.31793 176.838 3.85171C176.482 4.18933 176.166 4.56632 175.896 4.97543C175.26 5.95779 174.954 7.21107 175.352 8.31122C175.577 8.9187 175.972 9.44863 176.489 9.83777C175.868 10.6514 175.415 11.5812 175.157 12.5725C174.9 13.5637 174.843 14.5965 174.99 15.6101C175.137 16.6236 175.486 17.5975 176.014 18.4745C176.543 19.3515 177.242 20.1138 178.069 20.7168C177.809 21.1444 177.512 21.5495 177.184 21.9277V21.8664C177.184 21.8664 172.397 24.2693 170.669 23.9584C168.983 23.6545 164.603 26.4602 164.692 32.0764C164.692 32.2178 164.692 32.3638 164.692 32.5099L161.867 41.2758C160.73 44.7966 160.151 48.4737 160.15 52.1736C160.15 52.1736 157.555 59.2268 157.605 64.6122ZM165.194 68.3249L168.928 54.3881V57.4365L166.574 65.8089C166.574 65.8089 166.103 68.61 165.743 71.5853L165.194 68.3249Z" fill="url(#paint2_linear)"/>
</g>
<path d="M176.329 117.318L176.504 119.233C176.779 122.277 176.389 125.343 175.362 128.221C175.081 129.01 174.862 129.66 174.815 129.893C174.665 130.652 174.815 136.106 174.815 136.106C174.815 136.106 173.906 143.227 169.665 141.863C167.758 141.251 166.84 139.378 166.388 137.505C165.897 135.333 166.08 133.063 166.913 130.998C167.516 129.465 168.133 127.309 167.697 125.653C166.939 122.774 166.939 118.685 166.939 118.685L176.329 117.318Z" fill="#5A5773"/>
<path d="M180.872 84.4432C180.872 84.4432 174.966 98.8371 175.27 104.138C175.573 109.438 175.345 105.273 175.27 104.592C175.135 103.379 175.27 117.785 175.724 119.434C175.724 119.434 169.515 123.978 167.092 117.919C167.092 117.919 167.243 107.466 165.882 106.102C165.133 105.353 165.206 103.549 165.427 102.076C165.754 99.9465 165.833 97.7859 165.663 95.6379C165.571 94.5307 165.444 93.5554 165.279 93.2232C164.824 92.3139 164.37 82.012 167.097 79.1333L180.872 84.4432Z" fill="#605D82"/>
<path opacity="0.1" d="M174.966 119.441C174.511 117.775 174.377 103.379 174.511 104.599C174.587 105.28 174.815 109.448 174.511 104.145C174.208 98.8418 180.113 84.4503 180.113 84.4503L166.901 79.3665C166.962 79.2887 167.026 79.2157 167.089 79.1474L180.869 84.4503C180.869 84.4503 174.964 98.8441 175.267 104.145C175.571 109.445 175.343 105.28 175.267 104.599C175.133 103.386 175.267 117.792 175.722 119.441C175.722 119.441 173.242 121.255 170.805 121.062C172.974 120.897 174.966 119.441 174.966 119.441Z" fill="black"/>
<path d="M186.019 131.107L183.9 138.834L184.354 143.833C184.354 143.833 186.928 150.801 180.872 149.437C174.815 148.073 176.48 142.469 176.48 142.469L176.329 131.107C176.329 131.107 178.752 129.743 179.812 129.896C180.872 130.049 186.019 131.107 186.019 131.107Z" fill="#5A5773"/>
<path d="M196.469 80.8082C196.469 80.8082 189.504 103.381 191.169 106.87C191.169 106.87 189.504 110.204 189.805 113.231C190.107 116.258 184.959 132.471 184.959 132.471L177.387 131.107C177.387 131.107 179.204 126.562 179.204 123.684C179.204 120.805 181.173 108.371 181.173 108.371C181.173 108.371 182.838 85.6447 180.869 83.2206L196.469 80.8082Z" fill="#605D82"/>
<g opacity="0.1">
<path opacity="0.1" d="M181.458 85.0604C182.713 90.2055 181.326 109.139 181.326 109.139C181.326 109.139 179.357 121.561 179.357 124.452C179.357 126.65 178.3 129.816 177.799 131.191L177.389 131.118C177.389 131.118 179.207 126.574 179.207 123.695C179.207 120.817 181.175 108.383 181.175 108.383C181.175 108.383 182.442 91.0865 181.458 85.0604Z" fill="black"/>
<path opacity="0.1" d="M191.169 106.87L191.131 106.948C191.119 106.87 191.107 106.788 191.1 106.712C191.12 106.766 191.143 106.819 191.169 106.87Z" fill="black"/>
<path opacity="0.1" d="M181.213 83.9603C181.144 83.6989 181.028 83.4523 180.872 83.2323L196.469 80.8082C196.469 80.8082 196.377 81.1027 196.219 81.628L181.213 83.9603Z" fill="black"/>
</g>
<path d="M160.124 72.6266C160.124 72.6266 157.852 81.1074 164.666 82.323C164.777 82.2942 164.88 82.2429 164.97 82.1722C164.97 82.1722 168.907 74.4452 165.879 71.4157L160.124 72.6266Z" fill="#A1616A"/>
<path d="M187.99 16.2667C187.99 16.2667 187.535 22.6274 192.532 25.6592C197.529 28.6911 181.936 37.0212 181.936 37.0212L173.753 23.9937C173.753 23.9937 177.231 24.4484 179.35 18.3893L187.99 16.2667Z" fill="#A1616A"/>
<path opacity="0.1" d="M191.319 26.1139C191.319 26.1139 183.596 42.1733 176.631 27.0232L165.879 80.3536C165.879 80.3536 182.536 85.5057 182.687 87.9298C182.838 90.3539 199.495 81.7176 199.495 81.7176C199.495 81.7176 195.862 75.0507 196.768 70.961C197.675 66.8714 191.319 26.1139 191.319 26.1139Z" fill="black"/>
<path d="M191.319 25.8124C191.319 25.8124 183.596 41.8718 176.631 26.7217L165.879 80.0497C165.879 80.0497 182.536 85.1971 182.689 87.6235C182.842 90.05 199.497 81.4113 199.497 81.4113C199.497 81.4113 195.864 74.7444 196.77 70.6548C197.677 66.5651 191.319 25.8124 191.319 25.8124Z" fill="#E1E7EF"/>
<path d="M183.749 135.347C183.749 135.347 185.717 130.954 181.175 130.954C176.633 130.954 177.389 134.904 177.389 134.904L183.749 135.347Z" fill="#5A5773"/>
<path d="M173.452 123.985C173.452 123.985 175.27 119.288 170.725 119.137C166.181 118.986 168.453 123.377 168.453 123.377L173.452 123.985Z" fill="#5A5773"/>
<path opacity="0.1" d="M177.314 22.4035C177.314 22.4035 172.696 24.7593 171.029 24.4484C169.362 24.1374 164.973 27.0232 165.274 32.7808L162.538 41.3794C161.443 44.8234 160.887 48.416 160.89 52.0299C160.89 52.0299 156.952 62.9372 159.072 67.7854L159.526 74.4523C159.526 74.4523 163.002 72.4758 166.635 73.0812L165.726 67.6276L169.814 52.1736L176.628 35.6596L177.314 22.4035Z" fill="black"/>
<path d="M177.314 22.0997C177.314 22.0997 172.696 24.4554 171.029 24.1445C169.362 23.8335 164.973 26.7194 165.274 32.4769L162.538 41.0685C161.443 44.5125 160.887 48.1051 160.89 51.719C160.89 51.719 156.952 62.6263 159.072 67.4745L159.526 74.1414C159.526 74.1414 163.009 72.1719 166.644 72.7774L165.735 67.3237L169.823 51.8697L176.638 35.3557L177.314 22.0997Z" fill="#67647E"/>
<path opacity="0.1" d="M169.666 40.5078V57.6344L167.393 65.816C167.393 65.816 165.879 74.7539 166.334 77.4819C166.788 80.2099 174.057 80.8153 176.026 78.542C177.994 76.2686 176.934 56.8687 176.934 56.8687L177.314 28.4626L177.01 27.5533L169.666 40.5078Z" fill="black"/>
<path d="M169.362 39.7492V56.8687L167.089 65.0504C167.089 65.0504 165.575 73.9882 166.03 76.7162C166.484 79.4442 173.753 80.0497 175.722 77.7763C177.69 75.503 176.631 56.1031 176.631 56.1031L177.01 27.7159L169.362 39.7492Z" fill="#67647E"/>
<path opacity="0.1" d="M199.876 53.9923L195.03 69.0694L197.303 75.5077C197.303 75.5077 186.551 86.8697 179.737 81.416C179.737 81.416 178.978 58.2351 180.495 52.7814C182.011 47.3278 189.278 28.988 189.278 28.988L190.792 24.1398L198.817 28.6841L199.876 53.9923Z" fill="black"/>
<path d="M200.255 53.2337V68.0752C200.255 68.0752 199.952 71.2579 201.014 73.3781C202.076 75.4983 197.682 74.7421 197.682 74.7421C197.682 74.7421 186.93 86.104 180.116 80.6504C180.116 80.6504 179.357 57.4694 180.874 52.0158C182.39 46.5621 189.657 28.2223 189.657 28.2223L191.171 23.3741L199.196 27.9184L200.255 53.2337Z" fill="#67647E"/>
<path d="M184.817 53.9495L190.588 45.0587L189.206 44.1605L183.435 53.0513L184.817 53.9495Z" fill="#E6E6E6"/>
<path opacity="0.1" d="M184.167 54.7908C185.19 53.1985 185.311 51.452 184.438 50.8899C183.564 50.3278 182.026 51.1631 181.003 52.7554C179.979 54.3478 179.858 56.0943 180.732 56.6563C181.606 57.2184 183.144 56.3832 184.167 54.7908Z" fill="black"/>
<path d="M184.988 55.577C186.02 53.9872 186.149 52.2388 185.276 51.6719C184.404 51.105 182.86 51.9343 181.828 53.5241C180.796 55.1139 180.667 56.8623 181.539 57.4292C182.412 57.9961 183.956 57.1668 184.988 55.577Z" fill="#E6E6E6"/>
<path opacity="0.1" d="M184.692 55.3845C185.53 54.0926 185.635 52.6719 184.926 52.2113C184.217 51.7507 182.963 52.4246 182.124 53.7166C181.286 55.0085 181.181 56.4292 181.889 56.8898C182.598 57.3504 183.853 56.6765 184.692 55.3845Z" fill="black"/>
<path opacity="0.1" d="M188.52 20.7357C188.52 20.7357 193.137 24.1445 198.438 23.3859C203.738 22.6274 206.766 46.1122 206.766 46.1122C206.766 46.1122 208.735 58.2327 202.375 57.1726L188.298 52.4752C188.298 52.4752 191.326 49.2925 190.872 45.2029L197.686 47.9309L197.383 34.901L188.52 20.7357Z" fill="black"/>
<path opacity="0.1" d="M206.462 45.8107C206.462 45.8107 208.431 57.9312 202.071 56.8711L187.987 52.1736C187.987 52.1736 191.016 48.991 190.561 44.9013L197.376 47.6293L206.462 45.8107Z" fill="black"/>
<path d="M190.888 46.4985C190.888 46.4985 186.179 40.2816 182.692 43.264C179.204 46.2465 189.65 51.719 189.65 51.719L190.888 46.4985Z" fill="#A1616A"/>
<path d="M188.52 20.4341C188.52 20.4341 193.137 23.8429 198.438 23.0844C203.738 22.3258 206.766 45.8107 206.766 45.8107C206.766 45.8107 208.735 57.9312 202.375 56.8711L188.298 52.1736C188.298 52.1736 191.326 48.991 190.872 44.9013L197.686 47.6293L197.383 34.5995L189.659 28.2388L188.52 20.4341Z" fill="#67647E"/>
<path opacity="0.1" d="M179.204 18.6908L187.837 16.5706C187.837 16.5706 187.387 17.0795 187.912 19.0701C186.523 20.665 184.816 22.7828 182.536 22.7828C180.905 22.7859 179.317 22.2593 178.011 21.2822C178.498 20.4626 178.898 19.594 179.204 18.6908Z" fill="black"/>
<path d="M182.687 22.4789C186.869 22.4789 190.26 19.0869 190.26 14.9027C190.26 10.7185 186.869 7.32649 182.687 7.32649C178.505 7.32649 175.114 10.7185 175.114 14.9027C175.114 19.0869 178.505 22.4789 182.687 22.4789Z" fill="#A1616A"/>
<path opacity="0.1" d="M179.821 11.6164C178.065 11.3172 176.134 10.5374 175.545 8.85541C175.168 7.77882 175.456 6.55381 176.07 5.595C176.685 4.63619 177.589 3.89883 178.522 3.23921C180.036 2.1744 181.705 1.26035 183.528 0.939965C183.842 0.864799 184.169 0.864799 184.484 0.939965C184.757 1.05187 185.017 1.19411 185.258 1.36401C186.504 2.08252 188.053 1.77156 189.497 1.69617C190.94 1.62079 192.671 2.02834 193.125 3.39234C193.267 3.81403 193.257 4.26869 193.361 4.70216C193.596 5.76226 194.395 6.58679 195.009 7.47021C195.624 8.35363 196.097 9.54801 195.579 10.4998C195.402 10.8225 195.108 11.1193 195.108 11.4868C195.153 11.748 195.233 12.0022 195.343 12.243C195.558 13.0252 194.934 13.8143 194.213 14.1866C193.493 14.5588 192.664 14.6742 191.929 15.0205C191.242 15.36 190.666 15.8899 190.271 16.5472C189.875 17.2046 189.677 17.9617 189.699 18.7285C189.031 18.8063 188.251 18.8463 187.799 18.3469C187.597 18.1231 187.498 17.8239 187.314 17.586C187.078 17.275 186.711 17.0912 186.41 16.8415C184.825 15.5388 185.951 13.739 185.053 12.3349C184.583 11.6117 183.834 11.8331 183.076 11.8449C181.986 11.8704 180.897 11.7939 179.821 11.6164Z" fill="black"/>
<path d="M179.97 11.4609C178.213 11.1617 176.282 10.382 175.693 8.69992C175.317 7.62333 175.604 6.39832 176.219 5.43951C176.833 4.48071 177.737 3.74335 178.67 3.08373C180.184 2.01891 181.853 1.10486 183.676 0.784477C183.99 0.709312 184.318 0.709312 184.632 0.784477C184.905 0.896384 185.165 1.03862 185.407 1.20852C186.652 1.92703 188.202 1.61607 189.645 1.54069C191.089 1.4653 192.819 1.87285 193.274 3.23685C193.415 3.65854 193.406 4.11321 193.509 4.54667C193.745 5.60678 194.543 6.4313 195.157 7.31472C195.772 8.19814 196.245 9.39253 195.727 10.3443C195.551 10.667 195.256 10.9638 195.256 11.3313C195.302 11.5925 195.381 11.8467 195.492 12.0875C195.706 12.8697 195.082 13.6589 194.362 14.0311C193.641 14.4033 192.812 14.5187 192.077 14.865C191.39 15.2045 190.814 15.7344 190.419 16.3918C190.024 17.0491 189.825 17.8062 189.848 18.573C189.179 18.6508 188.399 18.6908 187.947 18.1914C187.745 17.9676 187.646 17.6684 187.462 17.4305C187.227 17.1195 186.859 16.9358 186.558 16.686C184.973 15.3833 186.099 13.5835 185.202 12.1794C184.731 11.4562 183.982 11.6776 183.224 11.6894C182.134 11.7149 181.045 11.6384 179.97 11.4609Z" fill="#4A4347"/>
<path opacity="0.1" d="M170.8 36.9482C170.8 36.9482 169.136 45.5845 169.892 48.9179C170.353 50.8571 170.285 52.8849 169.694 54.7886" fill="black"/>
<path opacity="0.1" d="M197.717 40.5832C197.717 40.5832 198.442 46.3407 197.234 47.5516L197.717 40.5832Z" fill="black"/>
<path d="M155.431 111.537C155.525 111.537 155.615 111.5 155.681 111.434C155.747 111.367 155.785 111.277 155.785 111.184C155.785 111.09 155.747 111 155.681 110.934C155.615 110.868 155.525 110.83 155.431 110.83C155.338 110.83 155.248 110.868 155.182 110.934C155.115 111 155.078 111.09 155.078 111.184C155.078 111.277 155.115 111.367 155.182 111.434C155.248 111.5 155.338 111.537 155.431 111.537Z" fill="black"/>
<path d="M92.6793 53.0246L82.8686 49.0191L82.2458 50.5459L92.0565 54.5514L92.6793 53.0246Z" fill="#E6E6E6"/>
<path opacity="0.1" d="M96.5501 55.4929C96.9432 54.5292 95.8397 53.1673 94.0854 52.4511C92.3311 51.7348 90.5902 51.9354 90.1972 52.8991C89.8041 53.8628 90.9075 55.2247 92.6619 55.9409C94.4162 56.6572 96.157 56.4566 96.5501 55.4929Z" fill="black"/>
<path d="M96.7358 55.5659C97.1289 54.6022 96.0254 53.2404 94.2711 52.5241C92.5168 51.8079 90.7759 52.0085 90.3828 52.9721C89.9897 53.9358 91.0932 55.2977 92.8476 56.014C94.6019 56.7302 96.3427 56.5296 96.7358 55.5659Z" fill="#E6E6E6"/>
<path opacity="0.1" d="M96.1406 55.3229C96.46 54.5399 95.5632 53.4333 94.1376 52.8513C92.712 52.2693 91.2974 52.4322 90.978 53.2152C90.6586 53.9982 91.5554 55.1048 92.981 55.6868C94.4066 56.2688 95.8212 56.1059 96.1406 55.3229Z" fill="black"/>
</g>
<defs>
<linearGradient id="paint0_linear" x1="100.783" y1="169.676" x2="100.783" y2="56.3222" gradientUnits="userSpaceOnUse">
<stop stop-color="#808080" stop-opacity="0.25"/>
<stop offset="0.54" stop-color="#808080" stop-opacity="0.12"/>
<stop offset="1" stop-color="#808080" stop-opacity="0.1"/>
</linearGradient>
<linearGradient id="paint1_linear" x1="-53114.7" y1="132855" x2="-53114.7" y2="21173.7" gradientUnits="userSpaceOnUse">
<stop stop-color="#808080" stop-opacity="0.25"/>
<stop offset="0.54" stop-color="#808080" stop-opacity="0.12"/>
<stop offset="1" stop-color="#808080" stop-opacity="0.1"/>
</linearGradient>
<linearGradient id="paint2_linear" x1="-41760.9" y1="57999.7" x2="-52553.3" y2="57999.7" gradientUnits="userSpaceOnUse">
<stop stop-color="#808080" stop-opacity="0.25"/>
<stop offset="0.54" stop-color="#808080" stop-opacity="0.12"/>
<stop offset="1" stop-color="#808080" stop-opacity="0.1"/>
</linearGradient>
<clipPath id="clip0">
<rect width="208" height="185" fill="white"/>
</clipPath>
</defs>
</svg>
