<svg width="28" height="20" viewBox="0 0 28 20" fill="none" xmlns="http://www.w3.org/2000/svg">
<path d="M28 0H0V19.0476H28V0Z" fill="#E6E6E6"/>
<path d="M7 19.0476H3.5V20H7V19.0476Z" fill="#D1D3D4"/>
<path d="M24.5 19.0476H21V20H24.5V19.0476Z" fill="#D1D3D4"/>
<path d="M21 1.90475H1.75V17.1429H21V1.90475Z" fill="#25374B"/>
<path d="M20.125 2.85715H2.625V16.1905H20.125V2.85715Z" fill="#33485D"/>
<path d="M24.5 7.61905C25.4665 7.61905 26.25 6.76626 26.25 5.71429C26.25 4.66232 25.4665 3.80952 24.5 3.80952C23.5335 3.80952 22.75 4.66232 22.75 5.71429C22.75 6.76626 23.5335 7.61905 24.5 7.61905Z" fill="#D1D3D4"/>
<path d="M26.25 9.5238H22.75V11.4286H26.25V9.5238Z" fill="#D1D3D4"/>
<path d="M21 19.0476L21.875 20H24.5V19.0476H21Z" fill="#C9CACC"/>
<path d="M3.5 19.0476L4.375 20H7V19.0476H3.5Z" fill="#C9CACC"/>
<path d="M26.25 12.381H24.5V13.3333H26.25V12.381Z" fill="#D1D3D4"/>
<path d="M23.625 12.381H22.75V13.3333H23.625V12.381Z" fill="#D1D3D4"/>
</svg>
