<svg width="22" height="23" viewBox="0 0 22 23" fill="none" xmlns="http://www.w3.org/2000/svg">
<path d="M3.75869 8.12928C2.3222 6.69279 2.15609 4.5338 3.38748 3.3024L3.75869 2.9312C4.99008 1.69981 7.14908 1.86591 8.58557 3.3024C9.91849 4.63533 9.91849 6.79636 8.58557 8.12928C7.25264 9.46221 5.09161 9.46221 3.75869 8.12928Z" fill="#F75B57"/>
<path d="M5.52215 4.54192C5.0819 4.54192 4.64206 4.37459 4.3066 4.03953C4.1478 3.88073 4.1478 3.62406 4.3066 3.46526C4.46499 3.30646 4.72207 3.30646 4.88087 3.46526C5.2342 3.81819 5.80969 3.81819 6.16303 3.46526C6.32183 3.30646 6.57891 3.30646 6.7377 3.46526C6.8961 3.62406 6.8961 3.88114 6.7377 4.03953C6.40224 4.37459 5.96199 4.54192 5.52215 4.54192Z" fill="#F98282"/>
<path d="M3.02637 13.8013L4.85396 18.3033C6.06017 20.5208 7.03083 21.1028 9.38761 22.0064C10.9281 22.5973 13.8461 22.5973 15.3748 22.0064C17.7068 21.1052 18.6933 20.5378 19.8878 18.3419L21.7361 13.8013C20.702 12.7775 19.0284 13.9195 17.994 14.9434C16.9652 13.9195 15.2997 14.6485 14.2709 15.6724C13.2422 14.6485 11.5767 14.6485 10.5479 15.6724C9.50864 14.6485 7.82644 13.9195 6.78715 14.9434C5.74786 13.9195 4.06566 12.7779 3.02637 13.8013Z" fill="#A46F3E"/>
<path d="M8.26524 19.9372C8.11254 19.9372 7.96633 19.8507 7.89729 19.7032L6.77474 17.3054C6.6797 17.1024 6.76702 16.8603 6.97049 16.7657C7.17397 16.6711 7.41561 16.7576 7.51065 16.961L8.6332 19.3588C8.72823 19.5619 8.64091 19.804 8.43744 19.8986C8.3814 19.925 8.32291 19.9372 8.26524 19.9372Z" fill="#C18B5F"/>
<path d="M16.4972 19.9372C16.4395 19.9372 16.3806 19.925 16.3254 19.8986C16.1223 19.8039 16.0346 19.5619 16.1297 19.3588L17.2522 16.961C17.3468 16.7576 17.5897 16.669 17.7924 16.7657C17.9954 16.8603 18.0831 17.1024 17.9881 17.3054L16.8656 19.7032C16.7961 19.8507 16.6499 19.9372 16.4972 19.9372Z" fill="#C18B5F"/>
<path d="M13.8786 20.7884C13.8579 20.7884 13.8364 20.7868 13.8153 20.7835C13.5939 20.749 13.4421 20.5411 13.4766 20.3193L13.8506 17.9215C13.8851 17.6998 14.0927 17.5495 14.3148 17.5828C14.5362 17.6173 14.6881 17.8253 14.6535 18.047L14.2795 20.4448C14.2482 20.6451 14.0752 20.7884 13.8786 20.7884Z" fill="#C18B5F"/>
<path d="M10.8838 20.7884C10.6872 20.7884 10.5142 20.6451 10.4829 20.4448L10.1089 18.047C10.0744 17.8253 10.2263 17.6173 10.4476 17.5828C10.6694 17.5495 10.8769 17.6998 10.9118 17.9215L11.2859 20.3193C11.3204 20.5411 11.1685 20.749 10.9472 20.7835C10.9256 20.7868 10.9045 20.7884 10.8838 20.7884Z" fill="#C18B5F"/>
<path d="M20.4785 10.2582C20.5378 10.0564 20.5695 9.84965 20.5695 9.63927C20.5695 8.5086 19.6776 7.48352 18.2314 6.73096C18.2314 6.73096 18.2696 0.22838 12.9671 0.753915C12.9671 0.753915 14.6769 3.52252 12.2812 3.5477C11.1135 3.55988 10.0267 3.71502 9.10236 3.97332C9.88295 5.28351 9.71318 7.00226 8.58536 8.13008C7.4157 9.29975 5.608 9.4423 4.28198 8.55855C4.09841 8.90377 3.99241 9.26522 3.99241 9.63968C3.99241 9.85005 4.02409 10.0568 4.08338 10.2586C3.12166 10.9702 2.56201 11.8145 2.56201 12.721C2.56201 13.3412 2.82437 13.9325 3.29711 14.4718L3.02622 13.8013C4.06551 12.7775 5.74771 13.9195 6.787 14.9434C7.8263 13.9195 9.50849 14.6485 10.5478 15.6724C11.5765 14.6485 13.2421 14.6485 14.2708 15.6724C15.2995 14.6485 16.9651 13.9195 17.9938 14.9434C19.0258 13.9219 20.6942 12.7835 21.7286 13.7956C21.9045 13.4504 21.9999 13.091 21.9999 12.7202C21.9999 11.8137 21.4402 10.9698 20.4785 10.2582Z" fill="#FFF5BB"/>
<path d="M5.40534 3.32474C5.197 3.32474 5.01992 3.16513 5.00124 2.95435C4.99921 2.93282 4.89646 1.97354 4.10694 1.35743C3.4754 0.864796 2.56648 0.706405 1.40575 0.883072C1.18644 0.917594 0.97688 0.765294 0.942764 0.54314C0.908649 0.321392 1.06095 0.114264 1.2827 0.0801492C2.67979 -0.134695 3.80234 0.0829922 4.61745 0.725899C5.68801 1.56944 5.80538 2.83129 5.81026 2.88408C5.82894 3.10786 5.66324 3.30403 5.43946 3.32271C5.42809 3.32433 5.41671 3.32474 5.40534 3.32474Z" fill="#6A3311"/>
<path d="M12.3817 8.18207C12.1575 8.18207 11.9756 8.00053 11.9756 7.77594C11.9756 7.55135 12.1575 7.36981 12.3817 7.36981C14.0599 7.36981 15.6519 7.1574 16.9852 6.75452C17.1993 6.68994 17.4267 6.81138 17.4917 7.02581C17.5562 7.24066 17.4348 7.46728 17.2204 7.53185C15.8115 7.95707 14.1382 8.18207 12.3817 8.18207Z" fill="#F9DA49"/>
<path d="M6.35786 11.8202C6.31156 11.8202 6.26486 11.8121 6.21896 11.7954C5.76775 11.6313 5.33319 11.4401 4.92706 11.2277C4.72846 11.1237 4.65129 10.8788 4.75526 10.6794C4.85923 10.4808 5.10454 10.4032 5.30354 10.508C5.678 10.7033 6.07966 10.88 6.49716 11.0323C6.70795 11.1091 6.81638 11.3422 6.73963 11.553C6.67952 11.7179 6.52356 11.8202 6.35786 11.8202Z" fill="#F9DA49"/>
<path d="M12.2802 12.7734C11.4508 12.7734 10.626 12.7235 9.81088 12.6231C9.58832 12.5959 9.42993 12.3937 9.45714 12.1707C9.48476 11.9481 9.69067 11.7898 9.90998 11.8174C11.5394 12.0176 13.2094 12.0091 14.8737 11.7926C15.0971 11.7601 15.2998 11.9201 15.329 12.1427C15.3582 12.3652 15.2011 12.5691 14.9785 12.5976C14.0781 12.7149 13.1765 12.7734 12.2802 12.7734Z" fill="#F9DA49"/>
<path d="M17.1842 12.1561C17.0055 12.1561 16.8418 12.0375 16.7927 11.8567C16.7338 11.6407 16.8613 11.4173 17.0778 11.358C17.9185 11.129 18.6674 10.8418 19.3034 10.506C19.5016 10.402 19.7477 10.4775 19.8521 10.6757C19.9569 10.8739 19.8809 11.1196 19.6827 11.2248C18.9943 11.5883 18.1898 11.8966 17.2918 12.1419C17.2557 12.1516 17.2195 12.1561 17.1842 12.1561Z" fill="#F9DA49"/>
</svg>
