<svg width="17" height="16" viewBox="0 0 17 16" fill="none" xmlns="http://www.w3.org/2000/svg">
<path fill-rule="evenodd" clip-rule="evenodd" d="M8.49992 15.3333C4.1967 15.3333 0.708252 12.0501 0.708252 8C0.708252 3.94991 4.1967 0.666664 8.49992 0.666664C12.8031 0.666664 16.2916 3.94991 16.2916 8C16.2916 12.0501 12.8031 15.3333 8.49992 15.3333ZM8.49992 14C12.0207 14 14.8749 11.3137 14.8749 8C14.8749 4.68629 12.0207 2 8.49992 2C4.97911 2 2.12492 4.68629 2.12492 8C2.12492 11.3137 4.97911 14 8.49992 14ZM6.16745 11.138L8.49991 8.94278L10.8324 11.138L11.8341 10.1952L9.50165 7.99997L11.8341 5.80471L10.8324 4.8619L8.49991 7.05716L6.16745 4.8619L5.16571 5.80471L7.49818 7.99997L5.16571 10.1952L6.16745 11.138Z" fill="#8C2323"/>
</svg>
