<svg width="27" height="24" viewBox="0 0 27 24" fill="none" xmlns="http://www.w3.org/2000/svg">
<path fill-rule="evenodd" clip-rule="evenodd" d="M23.9167 11.322H2.61597V11.1168C2.61597 9.35991 3.79578 7.92361 5.2449 7.92361H21.2878C22.7369 7.92361 23.9167 9.35991 23.9167 11.1168V11.322Z" fill="#D2D3D5"/>
<path fill-rule="evenodd" clip-rule="evenodd" d="M12.0034 7.92361H14.2348V7.35935C14.2348 6.61555 13.7347 6 13.1191 6C12.5036 6 12.0034 6.61555 12.0034 7.35935V7.92361Z" fill="black"/>
<path fill-rule="evenodd" clip-rule="evenodd" d="M24 14.5714V12H24.7563C25.7521 12 26.5714 12.5788 26.5714 13.2821C26.5714 13.9853 25.7521 14.5641 24.7563 14.5641H24V14.5714Z" fill="#D2D3D5"/>
<path fill-rule="evenodd" clip-rule="evenodd" d="M2.61597 11.322H13.1189V7.92361H12.0032H5.2449C3.79578 7.92361 2.61597 9.35991 2.61597 11.1168V11.322Z" fill="#C8C9C9"/>
<path fill-rule="evenodd" clip-rule="evenodd" d="M12.0034 7.35935V7.92361H13.1191V6C12.5036 6 12.0034 6.61555 12.0034 7.35935Z" fill="#373435"/>
<path fill-rule="evenodd" clip-rule="evenodd" d="M2.57143 14.5714V12H1.81513C0.819328 12 0 12.5788 0 13.2821C0 13.9853 0.819328 14.5641 1.81513 14.5641H2.57143V14.5714Z" fill="#C8C9C9"/>
<path fill-rule="evenodd" clip-rule="evenodd" d="M24.0001 12H2.57153V16.833V21.2477C2.57153 22.767 3.76629 24 5.21799 24H21.3537C22.8053 24 24.0001 22.756 24.0001 21.2477V16.833V12Z" fill="#D2D3D5"/>
<path fill-rule="evenodd" clip-rule="evenodd" d="M24 18.8571V15.4286H24.7563C25.7521 15.4286 26.5714 16.2002 26.5714 17.138C26.5714 18.0757 25.7521 18.8474 24.7563 18.8474H24V18.8571Z" fill="#D2D3D5"/>
<path fill-rule="evenodd" clip-rule="evenodd" d="M12.8572 23.989V12H2.57153V16.833V21.2477C2.57153 22.767 3.74094 24 5.16182 24H12.8572V23.989Z" fill="#C8C9C9"/>
<path fill-rule="evenodd" clip-rule="evenodd" d="M2.57143 18.8571V15.4286H1.81513C0.819328 15.4286 0 16.2002 0 17.138C0 18.0757 0.819328 18.8474 1.81513 18.8474H2.57143V18.8571Z" fill="#C8C9C9"/>
<path fill-rule="evenodd" clip-rule="evenodd" d="M22.2081 3.65711C23.2634 3.36137 24.0001 2.68999 24.0001 1.90909C24.0001 0.854729 22.657 0 21.0001 0C19.5473 0 18.3356 0.657219 18.0593 1.52996C17.4349 1.2532 16.6759 1.09092 15.8573 1.09092C13.7929 1.09092 12.1073 2.12295 12.0051 3.42048C11.7518 3.32654 11.4573 3.27272 11.143 3.27272C10.1962 3.27272 9.42871 3.76114 9.42871 4.36363C9.42871 4.96612 10.1962 5.45454 11.143 5.45454C11.7847 5.45454 12.3441 5.23014 12.638 4.89791C13.3283 5.56199 14.5124 6.00001 15.8573 6.00001C16.5195 6.00001 17.1428 5.8938 17.6873 5.70669C18.1501 5.89248 18.6982 5.99999 19.2859 5.99999C20.9427 5.99999 22.2859 5.14526 22.2859 4.0909C22.2859 3.94169 22.259 3.79647 22.2081 3.65711Z" fill="#DCDCDC"/>
</svg>
