<svg width="27" height="20" viewBox="0 0 27 20" fill="none" xmlns="http://www.w3.org/2000/svg">
<path fill-rule="evenodd" clip-rule="evenodd" d="M23.5171 6.31406H2.57373V11.8261V16.8611C2.57373 18.5938 3.74143 20 5.16026 20H20.9305C22.3493 20 23.5171 18.5812 23.5171 16.8611V11.8261V6.31406Z" fill="#D2D3D5"/>
<path fill-rule="evenodd" clip-rule="evenodd" d="M23.4167 5.48532H2.56128V5.28442C2.56128 3.56426 3.71643 2.15799 5.13525 2.15799H20.8427C22.2616 2.15799 23.4167 3.56426 23.4167 5.28442V5.48532Z" fill="#D2D3D5"/>
<path fill-rule="evenodd" clip-rule="evenodd" d="M11.7524 2.15799H13.9372V1.60553C13.9372 0.877283 13.4475 0.274597 12.8448 0.274597C12.2421 0.274597 11.7524 0.877283 11.7524 1.60553V2.15799Z" fill="black"/>
<path fill-rule="evenodd" clip-rule="evenodd" d="M23.4546 10.7086V6.30148H24.2079C25.1999 6.30148 26.016 7.2934 26.016 8.49877C26.016 9.70414 25.1999 10.6961 24.2079 10.6961H23.4546V10.7086Z" fill="#D2D3D5"/>
<path fill-rule="evenodd" clip-rule="evenodd" d="M12.8445 19.9875V6.31406H2.57373V11.8261V16.8611C2.57373 18.5938 3.74143 20 5.16026 20H12.8445V19.9875Z" fill="#C8C9C9"/>
<path fill-rule="evenodd" clip-rule="evenodd" d="M2.56128 5.48532H12.8446V2.15799H11.7522H5.13525C3.71643 2.15799 2.56128 3.56426 2.56128 5.28442V5.48532Z" fill="#C8C9C9"/>
<path fill-rule="evenodd" clip-rule="evenodd" d="M11.7524 1.60553V2.15799H12.8448V0.274597C12.2421 0.274597 11.7524 0.877283 11.7524 1.60553Z" fill="#373435"/>
<path fill-rule="evenodd" clip-rule="evenodd" d="M2.56141 10.7212V6.31406H1.80806C0.816137 6.31406 0 7.30598 0 8.51135C0 9.71672 0.816137 10.7086 1.80806 10.7086H2.56141V10.7212Z" fill="#C8C9C9"/>
</svg>
