<svg width="27" height="27" viewBox="0 0 27 27" fill="none" xmlns="http://www.w3.org/2000/svg">
<path d="M16.5291 4.31758C15.8974 4.94924 14.437 5.06647 14.0787 4.69879C13.7475 4.36759 13.8282 2.88005 14.4599 2.24839C15.0916 1.61673 15.8433 1.67125 16.4746 2.30291C17.1058 2.93457 17.1608 3.68633 16.5291 4.31758Z" fill="#D75A4A"/>
<path d="M23.5494 19.3293H6.74341V20.4828H23.5494V19.3293Z" fill="#C9C9C9"/>
<path d="M24.7338 19.3294H5.51388C5.44461 19.3294 5.37862 19.3019 5.32943 19.2531L3.80131 17.2389C3.63694 17.0745 3.75335 16.7937 3.98577 16.7937H26.5677C26.8116 16.7937 26.9218 17.0987 26.7345 17.2548L24.9006 19.2691C24.8539 19.308 24.7949 19.3294 24.7338 19.3294Z" fill="#E6E6E6"/>
<path d="M12.0727 15.9738C11.1685 15.9738 10.4331 15.2384 10.4331 14.3342C10.4331 13.4299 11.1685 12.6946 12.0727 12.6946C12.977 12.6946 13.7123 13.4299 13.7123 14.3342C13.7123 15.2384 12.977 15.9738 12.0727 15.9738ZM12.0727 13.5144C11.6206 13.5144 11.2529 13.8821 11.2529 14.3342C11.2529 14.7863 11.6206 15.154 12.0727 15.154C12.5248 15.154 12.8925 14.7863 12.8925 14.3342C12.8925 13.8821 12.5248 13.5144 12.0727 13.5144Z" fill="#231F20"/>
<path d="M12.0727 15.9738C11.1685 15.9738 10.4331 15.2384 10.4331 14.3342C10.4331 13.4299 11.1685 12.6946 12.0727 12.6946C12.977 12.6946 13.7123 13.4299 13.7123 14.3342C13.7123 15.2384 12.977 15.9738 12.0727 15.9738ZM12.0727 13.5144C11.6206 13.5144 11.2529 13.8821 11.2529 14.3342C11.2529 14.7863 11.6206 15.154 12.0727 15.154C12.5248 15.154 12.8925 14.7863 12.8925 14.3342C12.8925 13.8821 12.5248 13.5144 12.0727 13.5144Z" fill="#231F20"/>
<path d="M10.8427 10.2351V8.59546H6.94858C6.38497 8.59546 5.92383 9.0566 5.92383 9.62021C5.92383 10.1838 6.38497 10.645 6.94858 10.645H10.9185C10.8726 10.5163 10.8427 10.3794 10.8427 10.2351Z" fill="#EEAF4B"/>
<path d="M23.7544 8.59546H15.6855C15.515 9.07095 15.0637 9.41526 14.5316 9.41526C13.9996 9.41526 13.5483 9.07095 13.3777 8.59546H13.3019V10.2351C13.3019 10.3794 13.272 10.5163 13.2261 10.645H23.7544C24.318 10.645 24.7792 10.1838 24.7792 9.62021C24.7792 9.0566 24.318 8.59546 23.7544 8.59546Z" fill="#EEAF4B"/>
<path d="M10.8427 6.9558C10.8427 7.63214 10.2893 8.18551 9.61295 8.18551C8.93661 8.18551 8.38324 7.63214 8.38324 6.9558V6.5459H6.94858C6.38497 6.5459 5.92383 7.00704 5.92383 7.57065C5.92383 8.13427 6.38497 8.59541 6.94858 8.59541H10.8427V6.9558Z" fill="#FBD490"/>
<path d="M23.7547 6.5459H15.7616V8.18551C15.7616 8.32979 15.7317 8.4667 15.6858 8.59541H23.7547C24.3183 8.59541 24.7795 8.13427 24.7795 7.57065C24.7795 7.00704 24.3183 6.5459 23.7547 6.5459Z" fill="#FBD490"/>
<path d="M23.7546 10.645H13.2262C13.0557 11.1205 12.6044 11.4648 12.0724 11.4648C11.5403 11.4648 11.089 11.1205 10.9185 10.645H6.94858C6.38497 10.645 5.92383 11.1062 5.92383 11.6698C5.92383 12.2334 6.38497 12.6945 6.94858 12.6945H23.7546C24.3182 12.6945 24.7793 12.2334 24.7793 11.6698C24.7793 11.1062 24.3182 10.645 23.7546 10.645Z" fill="#FBD490"/>
<path d="M23.7546 12.6943H6.94858C6.38497 12.6943 5.92383 13.1555 5.92383 13.7191C5.92383 14.2827 6.38497 14.7438 6.94858 14.7438H10.9181C10.8722 14.6151 10.8427 14.4786 10.8427 14.3339C10.8427 13.6547 11.3932 13.1042 12.0724 13.1042C12.7516 13.1042 13.3021 13.6547 13.3021 14.3339C13.3021 14.4786 13.2726 14.6151 13.2266 14.7438H23.7546C24.3182 14.7438 24.7793 14.2827 24.7793 13.7191C24.7793 13.1555 24.3182 12.6943 23.7546 12.6943Z" fill="#EEAF4B"/>
<path d="M23.7546 14.7439H13.2271C13.0578 15.2206 12.6073 15.5637 12.0728 15.5637C11.5383 15.5637 11.0878 15.2206 10.9185 14.7439H6.94858C6.38497 14.7439 5.92383 15.205 5.92383 15.7687C5.92383 16.3323 6.38497 16.7934 6.94858 16.7934H23.7546C24.3182 16.7934 24.7793 16.3323 24.7793 15.7687C24.7793 15.205 24.3182 14.7439 23.7546 14.7439Z" fill="#FBD490"/>
<path d="M24.3697 4.90625H6.33398V6.54586H8.3835V6.95576C8.3835 7.6321 8.93686 8.18547 9.6132 8.18547C10.2895 8.18547 10.8429 7.6321 10.8429 6.95576V10.235C10.8429 10.9113 11.3963 11.4647 12.0726 11.4647C12.749 11.4647 13.3023 10.9113 13.3023 10.235V8.18547C13.3023 8.86181 13.8557 9.41517 14.532 9.41517C15.2084 9.41517 15.7617 8.86181 15.7617 8.18547V6.54586H24.3697V4.90625Z" fill="#7A3726"/>
<path d="M18.6308 2.82924C18.5258 2.82924 18.4209 2.78906 18.341 2.70913C17.9471 2.31522 17.3051 2.31522 16.9112 2.70913C16.751 2.86941 16.4919 2.86941 16.3316 2.70913C16.1714 2.54886 16.1714 2.2898 16.3316 2.12953C17.0457 1.41548 18.2065 1.41548 18.9206 2.12953C19.0808 2.2898 19.0808 2.54886 18.9206 2.70913C18.8406 2.78947 18.7357 2.82924 18.6308 2.82924Z" fill="#88C057"/>
<path d="M16.5604 2.82925C16.4555 2.82925 16.3505 2.78908 16.2706 2.70915C16.1103 2.54887 16.1103 2.28941 16.2706 2.12954C16.462 1.93812 16.5674 1.68439 16.5674 1.41467C16.5674 1.14496 16.462 0.89123 16.2706 0.699805C16.1103 0.539944 16.1103 0.280476 16.2706 0.120204C16.4309 -0.0400679 16.6899 -0.0400679 16.8502 0.120204C17.1966 0.466161 17.3872 0.926071 17.3872 1.41467C17.3872 1.90328 17.1966 2.36319 16.8502 2.70915C16.7699 2.78949 16.6649 2.82925 16.5604 2.82925Z" fill="#659C35"/>
<path d="M12.072 15.5637C12.7511 15.5637 13.3017 15.0131 13.3017 14.334C13.3017 13.6548 12.7511 13.1042 12.072 13.1042C11.3928 13.1042 10.8423 13.6548 10.8423 14.334C10.8423 15.0131 11.3928 15.5637 12.072 15.5637Z" fill="#7A3726"/>
<path d="M18.3106 26.9999L13.9658 25.1378V14.8965L18.3106 16.4482V26.9999Z" fill="#C6C6C6"/>
<path d="M24.2071 25.4482L18.3105 26.9999V16.4482L24.2071 14.8965V25.4482Z" fill="#E6E6E6"/>
<path d="M22.0347 10.5517L16.1382 11.793V10.5517L22.0347 9.3103V10.5517Z" fill="#E2E2E2"/>
<path d="M18.3106 16.4484L13.9658 14.8966L16.1382 11.7932L18.3106 16.4484Z" fill="#D1D1D1"/>
<path d="M24.2071 14.8963L18.3106 16.448L16.1382 11.7929L22.0347 10.5515L24.2071 14.8963Z" fill="#EAEAEA"/>
<path d="M24.2071 20.7931L18.3105 25.4483V20.7931L24.2071 15.8276V20.7931Z" fill="#3DABEF"/>
<path d="M13.9658 23.5861L18.3106 25.4481V20.793L13.9658 18.9309V23.5861Z" fill="#2B9DD6"/>
<path d="M20.8602 14.5471C20.1722 14.7271 19.9428 14.1055 19.8345 13.6928C19.7265 13.28 19.6223 12.6255 20.3103 12.4455C20.9983 12.2655 21.2277 12.8871 21.3357 13.2999C21.4437 13.7126 21.5482 14.3671 20.8602 14.5471Z" fill="white"/>
<path d="M20.7932 10.8129L21.4139 10.6823V9.44092L20.7932 9.57157V10.8129Z" fill="#EDEDED"/>
<path d="M19.552 11.0742L20.1727 10.9435V9.70215L19.552 9.8328V11.0742Z" fill="#EDEDED"/>
<path d="M18.3105 11.3357L18.9312 11.205V9.96362L18.3105 10.0943V11.3357Z" fill="#EDEDED"/>
<path d="M17.0691 11.5969L17.6898 11.4662V10.2249L17.0691 10.3555V11.5969Z" fill="#EDEDED"/>
<path d="M16.2116 21.6277H0.871593C0.392217 21.6277 0 21.2355 0 20.7561C0 20.2767 0.392217 19.8845 0.871593 19.8845H16.2116C16.691 19.8845 17.0832 20.2767 17.0832 20.7561C17.0832 21.2355 16.691 21.6277 16.2116 21.6277Z" fill="#6A3311"/>
<path d="M16.2116 20.2329H0.871593C0.392217 20.2329 0 19.8407 0 19.3613C0 18.882 0.392217 18.4897 0.871593 18.4897H16.2116C16.691 18.4897 17.0832 18.882 17.0832 19.3613C17.0832 19.8407 16.691 20.2329 16.2116 20.2329Z" fill="#A8431A"/>
<path d="M2.26614 17.7927C1.30739 17.7927 1.43499 17.4413 1.39455 17.0955C0.473449 17.2701 0 17.7941 0 18.3157C0 18.9896 1.09263 19.5359 2.44046 19.5359C3.78829 19.5359 4.88092 18.9896 4.88092 18.3157C4.88092 18.1281 4.79376 17.9514 4.6428 17.7927H2.26614Z" fill="#ED3F32"/>
<path d="M4.63612 17.7925C4.78848 17.9515 4.88087 18.1275 4.88087 18.3154C4.88087 18.5999 4.68458 18.8611 4.35791 19.0685C4.80486 19.3526 5.49656 19.5357 6.27541 19.5357C7.62325 19.5357 8.71587 18.9894 8.71587 18.3154C8.71587 18.1279 8.62871 17.9511 8.47775 17.7925H4.63612Z" fill="#F9EA80"/>
<path d="M15.6887 15.7007H1.0459V17.7925H15.6887V15.7007Z" fill="#D28F1B"/>
<path d="M15.6887 15.7008H1.0459L8.36728 8.37939L15.6887 15.7008Z" fill="#FDE3AA"/>
<path d="M15.689 17.6318V17.7922H12.4791C12.4383 17.8117 12.4003 17.832 12.3634 17.8529C12.4812 17.9958 12.5513 18.151 12.5513 18.3155C12.5513 18.5637 12.4021 18.7945 12.1472 18.9873C12.56 19.314 13.3667 19.5357 14.2945 19.5357C15.6423 19.5357 16.7349 19.0675 16.7349 18.4898C16.7349 18.1346 16.3208 17.8211 15.689 17.6318Z" fill="#F9EA80"/>
<path d="M8.47377 17.7925C8.62612 17.9511 8.71607 18.1275 8.71607 18.3154C8.71607 18.5448 8.58742 18.7582 8.36743 18.9416C8.79381 19.2968 9.56988 19.5357 10.4593 19.5357C11.8071 19.5357 12.8997 18.9894 12.8997 18.3154C12.8997 18.1279 12.8126 17.9511 12.6616 17.7925H8.47377Z" fill="#ED3F32"/>
<path d="M11.8538 14.6548C12.0463 14.6548 12.2024 14.4987 12.2024 14.3062C12.2024 14.1136 12.0463 13.9575 11.8538 13.9575C11.6612 13.9575 11.5051 14.1136 11.5051 14.3062C11.5051 14.4987 11.6612 14.6548 11.8538 14.6548Z" fill="#D28F1B"/>
<path d="M8.0188 11.5171C8.21135 11.5171 8.36744 11.361 8.36744 11.1685C8.36744 10.9759 8.21135 10.8198 8.0188 10.8198C7.82626 10.8198 7.67017 10.9759 7.67017 11.1685C7.67017 11.361 7.82626 11.5171 8.0188 11.5171Z" fill="#D28F1B"/>
<path d="M4.88086 14.6548C5.07341 14.6548 5.2295 14.4987 5.2295 14.3062C5.2295 14.1136 5.07341 13.9575 4.88086 13.9575C4.68832 13.9575 4.53223 14.1136 4.53223 14.3062C4.53223 14.4987 4.68832 14.6548 4.88086 14.6548Z" fill="#D28F1B"/>
<path d="M9.41285 13.6089C9.60539 13.6089 9.76148 13.4528 9.76148 13.2603C9.76148 13.0677 9.60539 12.9116 9.41285 12.9116C9.2203 12.9116 9.06421 13.0677 9.06421 13.2603C9.06421 13.4528 9.2203 13.6089 9.41285 13.6089Z" fill="#D28F1B"/>
<path d="M7.32154 13.9575C7.51408 13.9575 7.67017 13.8014 7.67017 13.6089C7.67017 13.4163 7.51408 13.2603 7.32154 13.2603C7.12899 13.2603 6.9729 13.4163 6.9729 13.6089C6.9729 13.8014 7.12899 13.9575 7.32154 13.9575Z" fill="#D28F1B"/>
<path d="M16.3857 21.6274H0.426514V23.9616H16.3857V21.6274Z" fill="#FDE3AA"/>
<path d="M10.8079 22.6736C11.0004 22.6736 11.1565 22.5175 11.1565 22.325C11.1565 22.1324 11.0004 21.9763 10.8079 21.9763C10.6153 21.9763 10.4592 22.1324 10.4592 22.325C10.4592 22.5175 10.6153 22.6736 10.8079 22.6736Z" fill="#D28F1B"/>
<path d="M13.5967 23.3706C13.7892 23.3706 13.9453 23.2145 13.9453 23.022C13.9453 22.8294 13.7892 22.6733 13.5967 22.6733C13.4041 22.6733 13.248 22.8294 13.248 23.022C13.248 23.2145 13.4041 23.3706 13.5967 23.3706Z" fill="#D28F1B"/>
<path d="M8.36768 23.3706C8.56023 23.3706 8.71632 23.2145 8.71632 23.022C8.71632 22.8294 8.56023 22.6733 8.36768 22.6733C8.17513 22.6733 8.01904 22.8294 8.01904 23.022C8.01904 23.2145 8.17513 23.3706 8.36768 23.3706Z" fill="#D28F1B"/>
<path d="M5.2295 22.6736C5.42204 22.6736 5.57813 22.5175 5.57813 22.325C5.57813 22.1324 5.42204 21.9763 5.2295 21.9763C5.03695 21.9763 4.88086 22.1324 4.88086 22.325C4.88086 22.5175 5.03695 22.6736 5.2295 22.6736Z" fill="#D28F1B"/>
</svg>
