<svg width="25" height="14" viewBox="0 0 25 14" fill="none" xmlns="http://www.w3.org/2000/svg">
<path d="M21.5532 13.7846H3.46068C2.67452 13.7846 2.79815 12.5431 2.3411 11.9034L0.0752338 10.54C-0.113876 10.275 0.0752338 9.90717 0.400899 9.90717H24.5992C24.9244 9.90717 25.1139 10.275 24.9248 10.54L22.6736 11.9034C22.2161 12.5435 22.3398 13.7846 21.5532 13.7846Z" fill="#E6E6E6"/>
<path d="M22.8689 9.2843C22.6088 9.10768 22.4489 8.81691 22.4813 8.50374C22.492 8.39992 22.489 8.29696 22.4623 8.20822C22.3624 7.88041 22.0845 7.61806 21.7507 7.54052C21.5964 7.50477 21.3083 7.51942 21.3083 7.51209C21.3083 7.07012 20.9499 6.71215 20.5083 6.71215C20.3334 6.71215 20.1081 6.63676 20.1081 6.51227C20.1081 5.9794 19.6903 5.5482 19.1652 5.51804C19.1122 5.58094 19.0467 5.63392 18.9623 5.65804L17.7199 6.01429C17.492 6.07934 17.2525 5.94666 17.187 5.71878L16.9596 4.9253C16.1627 4.87361 15.3903 4.84647 14.6498 4.84259C14.5959 5.50684 14.0463 6.03109 13.3678 6.03109C12.7148 6.03109 12.1806 5.54518 12.0936 4.91582C11.1386 4.97527 10.249 5.06444 9.44389 5.17299L8.39022 6.34168C8.25625 6.4903 8.02708 6.50236 7.87803 6.36839L7.45674 5.98888C7.3176 5.86352 7.30338 5.65675 7.41107 5.50857C6.56762 5.67441 5.87235 5.84586 5.34896 5.98974L4.98582 6.68242C4.87597 6.89221 4.61406 6.97406 4.40428 6.86421L3.47251 6.37614C3.40962 6.46359 3.3743 6.56095 3.39067 6.67036C3.48113 7.27517 2.85608 7.76237 2.48776 7.77487C2.1845 7.7852 2.09145 8.40897 2.1061 8.71223C2.10868 8.76435 1.30615 9.07063 1.30615 9.51218C1.30615 9.63107 1.33243 9.74393 1.37895 9.84473C1.38843 9.86498 1.39015 9.88652 1.39748 9.90763H23.2816C23.2286 9.65002 23.0796 9.42731 22.8689 9.2843Z" fill="#FBD490"/>
<path d="M5.82224 7.91742C5.73867 7.91742 5.65424 7.89286 5.57972 7.84246C5.38329 7.70806 5.33246 7.44012 5.46643 7.24369L5.80286 6.75002C5.93683 6.55316 6.2052 6.50319 6.40163 6.63673C6.59807 6.77113 6.6489 7.03907 6.51493 7.23551L6.17849 7.72917C6.09535 7.85194 5.95966 7.91742 5.82224 7.91742Z" fill="#F7E2BF"/>
<path d="M4.40545 6.86416L3.26089 6.26452C3.0511 6.15468 2.96925 5.89277 3.0791 5.68298L3.67874 4.53841C3.78859 4.32863 4.0505 4.24678 4.26028 4.35663L5.40485 4.95626C5.61463 5.06611 5.69648 5.32802 5.58663 5.53781L4.987 6.68237C4.87715 6.89259 4.61524 6.97401 4.40545 6.86416Z" fill="#EA5E35"/>
<path d="M4.6727 8.92929C4.59559 8.92929 4.51762 8.90862 4.44697 8.86511L3.93823 8.55108C3.73576 8.42615 3.6733 8.16123 3.79823 7.95833C3.92272 7.75587 4.18721 7.69211 4.39097 7.81833L4.89971 8.13236C5.10218 8.25729 5.16464 8.52221 5.03972 8.72511C4.9583 8.85649 4.817 8.92929 4.6727 8.92929Z" fill="#F7E2BF"/>
<path d="M6.70216 9.64569C6.6845 9.64569 6.66684 9.64483 6.64875 9.64224C6.41268 9.61338 6.24468 9.39799 6.2744 9.16193L6.34807 8.56875C6.37693 8.33269 6.59188 8.16426 6.82838 8.19441C7.06444 8.22327 7.23244 8.43866 7.20272 8.67472L7.12906 9.2679C7.10235 9.4863 6.91669 9.64569 6.70216 9.64569Z" fill="#F7E2BF"/>
<path d="M8.15688 8.11427C8.14568 8.11427 8.13448 8.11384 8.12328 8.11298L7.52752 8.06689C7.29017 8.04836 7.11269 7.84159 7.13121 7.60424C7.14973 7.36645 7.35737 7.18725 7.59386 7.20792L8.18962 7.25402C8.42698 7.27254 8.60446 7.47931 8.58593 7.71667C8.56827 7.94282 8.37959 8.11427 8.15688 8.11427Z" fill="#F7E2BF"/>
<path d="M9.81443 9.42126C9.73086 9.42126 9.64643 9.3967 9.57191 9.3463C9.37547 9.21233 9.32464 8.94439 9.45861 8.74753L9.79505 8.25386C9.92945 8.05656 10.197 8.00745 10.3938 8.14056C10.5903 8.27453 10.6411 8.54248 10.5071 8.73934L10.1707 9.23301C10.0875 9.35578 9.95228 9.42126 9.81443 9.42126Z" fill="#F7E2BF"/>
<path d="M9.95297 7.42374C9.87586 7.42374 9.79789 7.40306 9.72724 7.35955L9.2185 7.04552C9.01604 6.9206 8.95357 6.65567 9.0785 6.45278C9.20299 6.25031 9.46749 6.18656 9.67124 6.31278L10.18 6.62681C10.3824 6.75173 10.4449 7.01666 10.32 7.21955C10.2386 7.35094 10.0973 7.42374 9.95297 7.42374Z" fill="#F7E2BF"/>
<path d="M19.4302 8.92758C19.3466 8.92758 19.2617 8.90303 19.1876 8.85263C18.9912 8.71823 18.9404 8.45029 19.0743 8.25385L19.4112 7.76019C19.5452 7.56332 19.8144 7.51335 20.01 7.64689C20.2064 7.78129 20.2572 8.04924 20.1233 8.24567L19.7864 8.73934C19.7033 8.86211 19.5676 8.92758 19.4302 8.92758Z" fill="#F7E2BF"/>
<path d="M18.4784 7.63699C18.4012 7.63699 18.3233 7.61631 18.2526 7.5728L17.7439 7.25877C17.5414 7.13384 17.479 6.86892 17.6039 6.66602C17.728 6.46399 17.9933 6.39981 18.1966 6.52602L18.7054 6.84006C18.9078 6.96498 18.9703 7.22991 18.8454 7.4328C18.764 7.56419 18.6227 7.63699 18.4784 7.63699Z" fill="#F7E2BF"/>
<path d="M12.2725 7.10413C12.2618 7.10413 12.2501 7.1037 12.2389 7.10284L11.6428 7.05675C11.4054 7.03823 11.2279 6.83145 11.2464 6.5941C11.265 6.35674 11.467 6.18185 11.7091 6.19779L12.3053 6.24388C12.5426 6.2624 12.7201 6.46917 12.7016 6.70653C12.6844 6.93269 12.4957 7.10413 12.2725 7.10413Z" fill="#F7E2BF"/>
<path d="M17.0124 10.3642C17.0012 10.3642 16.9895 10.3638 16.9783 10.3629L16.3826 10.3164C16.1452 10.2979 15.9682 10.0907 15.9867 9.85331C16.0052 9.61595 16.2171 9.44494 16.4498 9.45743L17.0455 9.50395C17.2829 9.52248 17.4599 9.72968 17.4414 9.96703C17.4237 10.1928 17.2351 10.3642 17.0124 10.3642Z" fill="#F7E2BF"/>
<path d="M12.5385 9.04602C12.5015 9.04602 12.464 9.04128 12.4265 9.03137L11.8493 8.87673C11.6193 8.81513 11.4827 8.57906 11.5447 8.34903C11.6068 8.11899 11.8437 7.98244 12.0724 8.04447L12.6497 8.19912C12.8797 8.26072 13.0163 8.49678 12.9542 8.72682C12.9021 8.91937 12.7285 9.04602 12.5385 9.04602Z" fill="#F7E2BF"/>
<path d="M14.7687 8.79623C14.5856 8.79623 14.4163 8.67949 14.3582 8.49598C14.2862 8.26939 14.4116 8.02687 14.6382 7.95493L15.2081 7.774C15.4368 7.7012 15.6776 7.82785 15.7492 8.054C15.8211 8.28059 15.6957 8.52312 15.4692 8.59506L14.8992 8.77598C14.8562 8.7902 14.8118 8.79623 14.7687 8.79623Z" fill="#F7E2BF"/>
<path d="M13.8303 7.75376C13.7196 7.75376 13.6089 7.71111 13.5249 7.62668C13.3569 7.45782 13.3577 7.18514 13.5266 7.01757L13.9505 6.59584C14.1193 6.42741 14.3916 6.4287 14.5596 6.59756C14.7276 6.76643 14.7267 7.03911 14.5579 7.20668L14.134 7.62841C14.0496 7.71241 13.9401 7.75376 13.8303 7.75376Z" fill="#F7E2BF"/>
<path d="M17.2759 8.76261C17.0855 8.76261 16.9106 8.6351 16.8597 8.44211L16.7072 7.86401C16.6465 7.63398 16.7839 7.39791 17.0135 7.33717C17.2427 7.276 17.4796 7.41299 17.5404 7.64345L17.6929 8.22155C17.7536 8.45159 17.6162 8.68765 17.3866 8.74839C17.3495 8.75787 17.3125 8.76261 17.2759 8.76261Z" fill="#F7E2BF"/>
<path d="M16.0577 6.46056C16.0465 6.46056 16.0349 6.46012 16.0237 6.45926L15.4275 6.41274C15.1901 6.39422 15.0131 6.18701 15.0316 5.94966C15.0501 5.71187 15.2603 5.53784 15.4947 5.55378L16.0909 5.6003C16.3282 5.61882 16.5053 5.82603 16.4868 6.06338C16.4691 6.28954 16.28 6.46056 16.0577 6.46056Z" fill="#F7E2BF"/>
<path d="M17.1879 5.71878L16.8316 4.47642C16.7662 4.24855 16.8993 4.00904 17.1271 3.94356L18.3695 3.58731C18.5974 3.52183 18.8369 3.65494 18.9024 3.88282L19.2586 5.12517C19.3241 5.35305 19.191 5.59256 18.9631 5.65804L17.7207 6.01429C17.4929 6.07933 17.2529 5.94665 17.1879 5.71878Z" fill="#F7994D"/>
<path d="M10.4203 2.70333L10.0641 1.46098C9.99858 1.2331 10.1317 0.993593 10.3596 0.928115L11.6019 0.571866C11.8298 0.506388 12.0693 0.639497 12.1348 0.867376L12.491 2.10973C12.5565 2.33761 12.4234 2.57712 12.1955 2.64259L10.9532 2.99884C10.7253 3.06389 10.4858 2.93121 10.4203 2.70333Z" fill="#FDD807"/>
<path d="M13.3685 6.03062C14.0822 6.03062 14.6608 5.45203 14.6608 4.7383C14.6608 4.02458 14.0822 3.44598 13.3685 3.44598C12.6548 3.44598 12.0762 4.02458 12.0762 4.7383C12.0762 5.45203 12.6548 6.03062 13.3685 6.03062Z" fill="#F6A36E"/>
<path d="M6.47591 4.30757C7.18964 4.30757 7.76824 3.72898 7.76824 3.01525C7.76824 2.30152 7.18964 1.72293 6.47591 1.72293C5.76219 1.72293 5.18359 2.30152 5.18359 3.01525C5.18359 3.72898 5.76219 4.30757 6.47591 4.30757Z" fill="#FBB50C"/>
<path d="M10.2125 4.32045L8.39071 6.34164C8.25674 6.49025 8.02757 6.50232 7.87852 6.36835L7.45722 5.98883C7.30861 5.85486 7.29655 5.62569 7.43052 5.47664L9.25226 3.45545C9.38623 3.30684 9.6154 3.29478 9.76445 3.42875L10.1857 3.80826C10.3348 3.94223 10.3464 4.17183 10.2125 4.32045Z" fill="#71B43D"/>
<path d="M15.187 3.2375L14.2522 0.682152C14.1833 0.493904 14.2802 0.285841 14.468 0.216917L15.0009 0.0222076C15.1891 -0.0467161 15.3972 0.0502077 15.4661 0.238025L16.4009 2.79337C16.4698 2.98162 16.3729 3.18969 16.1851 3.25861L15.6522 3.45332C15.464 3.52224 15.2559 3.42532 15.187 3.2375Z" fill="#98DF2A"/>
<path d="M21.1223 12.4923H7.76232C7.5241 12.4923 7.33154 12.2997 7.33154 12.0615C7.33154 11.8233 7.5241 11.6307 7.76232 11.6307H21.1228C21.361 11.6307 21.5535 11.8233 21.5535 12.0615C21.5535 12.2997 21.3605 12.4923 21.1223 12.4923Z" fill="white"/>
<path d="M5.64582 12.4923H3.89171C3.65349 12.4923 3.46094 12.2997 3.46094 12.0615C3.46094 11.8233 3.65349 11.6307 3.89171 11.6307H5.64539C5.88361 11.6307 6.07616 11.8233 6.07616 12.0615C6.07616 12.2997 5.88361 12.4923 5.64582 12.4923Z" fill="white"/>
</svg>
