<svg width="32" height="26" viewBox="0 0 32 26" fill="none" xmlns="http://www.w3.org/2000/svg">
<path d="M20.467 6L0 12.25V20.375C0 20.5781 0.115492 20.7687 0.309929 20.8859C0.504366 21.0031 0.752894 21.0318 0.976935 20.9637L20.467 15.0118V6Z" fill="#FBE158"/>
<path d="M20.467 5.99998L0 12.25L10.2335 1C14.6961 1 18.7588 3.31656 20.467 5.99998Z" fill="#FCF6C2"/>
<path d="M9.13697 16C9.33882 16 9.50245 15.8601 9.50245 15.6875C9.50245 15.5149 9.33882 15.375 9.13697 15.375C8.93512 15.375 8.77148 15.5149 8.77148 15.6875C8.77148 15.8601 8.93512 16 9.13697 16Z" fill="#F3B607"/>
<path d="M18.6397 8.50001C18.8415 8.50001 19.0051 8.3601 19.0051 8.1875C19.0051 8.01491 18.8415 7.875 18.6397 7.875C18.4378 7.875 18.2742 8.01491 18.2742 8.1875C18.2742 8.3601 18.4378 8.50001 18.6397 8.50001Z" fill="#F3B607"/>
<path d="M16.0813 12.25C16.8887 12.25 17.5432 11.6903 17.5432 11C17.5432 10.3096 16.8887 9.75 16.0813 9.75C15.2739 9.75 14.6194 10.3096 14.6194 11C14.6194 11.6903 15.2739 12.25 16.0813 12.25Z" fill="#F3B607"/>
<path d="M4.75122 12.25C4.95307 12.25 5.11671 12.1101 5.11671 11.9375C5.11671 11.7649 4.95307 11.625 4.75122 11.625C4.54937 11.625 4.38574 11.7649 4.38574 11.9375C4.38574 12.1101 4.54937 12.25 4.75122 12.25Z" fill="#F3B607"/>
<path d="M6.43251 18.4472C6.42337 18.4529 6.41387 18.4607 6.40693 18.4685C6.14341 18.7669 6.17411 19.071 6.34881 19.2813L7.6704 18.8779C7.63275 18.4163 7.01618 18.091 6.43251 18.4472Z" fill="#F3B607"/>
<path d="M13.5227 14.75C13.9264 14.75 14.2537 14.4702 14.2537 14.125C14.2537 13.7798 13.9264 13.5 13.5227 13.5C13.119 13.5 12.7917 13.7798 12.7917 14.125C12.7917 14.4702 13.119 14.75 13.5227 14.75Z" fill="#F3B607"/>
<path d="M3.65479 16C4.05849 16 4.38576 15.7202 4.38576 15.375C4.38576 15.0298 4.05849 14.75 3.65479 14.75C3.25109 14.75 2.92383 15.0298 2.92383 15.375C2.92383 15.7202 3.25109 16 3.65479 16Z" fill="#F3B607"/>
<path d="M11.3298 3.8125C11.9354 3.8125 12.4263 3.60263 12.4263 3.34375C12.4263 3.08487 11.9354 2.875 11.3298 2.875C10.7243 2.875 10.2334 3.08487 10.2334 3.34375C10.2334 3.60263 10.7243 3.8125 11.3298 3.8125Z" fill="#FACB1B"/>
<path d="M8.95423 7.09374C9.45886 7.09374 9.86794 6.91885 9.86794 6.70312C9.86794 6.48739 9.45886 6.3125 8.95423 6.3125C8.44961 6.3125 8.04053 6.48739 8.04053 6.70312C8.04053 6.91885 8.44961 7.09374 8.95423 7.09374Z" fill="#FACB1B"/>
<path d="M14.4364 6.00002C15.3447 6.00002 16.0811 5.72019 16.0811 5.37501C16.0811 5.02983 15.3447 4.75 14.4364 4.75C13.5281 4.75 12.7917 5.02983 12.7917 5.37501C12.7917 5.72019 13.5281 6.00002 14.4364 6.00002Z" fill="#FACB1B"/>
<path d="M5.48218 9.125C5.88589 9.125 6.21315 8.98509 6.21315 8.8125C6.21315 8.63991 5.88589 8.5 5.48218 8.5C5.07848 8.5 4.75122 8.63991 4.75122 8.8125C4.75122 8.98509 5.07848 9.125 5.48218 9.125Z" fill="#FACB1B"/>
<path d="M19.9479 16C18.7684 15.9161 18.1517 15.4909 17.835 15.0191C17.8957 13.8704 18.0716 12.4396 18.5659 11.1412C18.8492 10.3976 19.2514 9.7245 19.7447 9.22972C20.2841 8.63992 20.7825 8.1861 21.2846 7.81189C22.2758 7.07776 23.1454 6.75795 23.4206 6.64545C23.699 6.53807 24.1981 6.33621 24.802 6.11145C25.404 5.90529 26.1332 5.60695 26.7556 5.2422C28.0316 4.54445 29.0893 3.75706 29.0876 3.75677C29.0897 3.75706 27.9589 4.38381 26.645 4.90404C25.982 5.18665 25.3046 5.37244 24.6724 5.51879C24.0502 5.67881 23.5248 5.84175 23.2354 5.95368C22.6943 6.17958 19.4525 7.21693 17.7966 10.6943C17.4221 11.5824 17.1872 12.5012 17.035 13.3621C16.6607 13.1509 16.1948 12.742 16.0678 11.9852C15.8466 10.6668 15.9697 6.71042 19.5549 4.51266C23.1404 2.31517 27.1433 2.75438 29.059 2.10988C30.9745 1.46537 31.7358 0 31.7358 0C31.7358 0 30.1395 14.9157 19.9479 16Z" fill="#8CC63F"/>
<path fill-rule="evenodd" clip-rule="evenodd" d="M7.58654 22.3609C8.58854 24.4425 10.9347 26.0695 14.9916 25.9978C19.0484 26.0695 21.3946 24.4425 22.3966 22.3609C22.7876 21.5235 22.9831 20.6143 22.9831 19.7051C22.9831 18.7958 22.812 17.8627 22.4699 17.0253C21.6145 14.9197 19.7572 13.2449 17.2644 13.2449C16.8978 13.2449 16.5312 13.2927 16.1891 13.3645C15.8225 13.4363 15.4803 13.5559 15.1626 13.6995L14.9916 13.7713L14.8205 13.6995C14.5028 13.5559 14.1606 13.4363 13.794 13.3645C13.4519 13.2927 13.0853 13.2449 12.7187 13.2449C10.226 13.2449 8.34415 14.8958 7.51322 17.0253C7.17107 17.8627 7 18.7958 7 19.7051C7 20.6143 7.19551 21.5235 7.58654 22.3609Z" fill="#D73426"/>
<path d="M14.4783 8.72272C14.4783 8.24419 14.6738 7.81351 14.9915 7.50246C15.3092 7.19141 15.7491 7 16.2379 7C16.5067 7 16.7511 7.21534 16.7511 7.50246C16.7511 7.76565 16.5312 8.00492 16.2379 8.00492C16.018 8.00492 15.8469 8.0767 15.7003 8.22026C15.5536 8.36382 15.4803 8.53131 15.4803 8.74665V13.7473C15.4803 14.0105 15.2603 14.2498 14.9671 14.2498C14.6982 14.2498 14.4539 14.0344 14.4539 13.7473V8.72272H14.4783Z" fill="#278943"/>
<path fill-rule="evenodd" clip-rule="evenodd" d="M8.56421 8.24415C14.6984 17.4559 19.3907 5.34903 8.56421 8.24415V8.24415Z" fill="#7EB642"/>
</svg>
