<svg width="21" height="21" viewBox="0 0 21 21" fill="none" xmlns="http://www.w3.org/2000/svg">
<path opacity="0.3" d="M17.9362 17.9375H3.06227C2.09984 17.9375 1.31239 17.15 1.31239 16.1875V4.81249C1.31239 3.84999 2.09984 3.06249 3.06227 3.06249H17.9362C18.8987 3.06249 19.6861 3.84999 19.6861 4.81249V16.1875C19.6861 17.15 18.8987 17.9375 17.9362 17.9375Z" fill="#D0CDCD"/>
<path d="M20.1236 8.48749V4.81248C20.1236 3.58747 19.1612 2.62497 17.9363 2.62497H3.06229C1.83737 2.62497 0.874939 3.58747 0.874939 4.81248V8.48749V16.1875C0.874939 17.4125 1.83737 18.375 3.06229 18.375H17.9363C19.1612 18.375 20.1236 17.4125 20.1236 16.1875V8.48749ZM3.06229 3.49997H17.9363C18.6362 3.49997 19.2487 4.11247 19.2487 4.81248V8.225L10.4993 11.9875L1.74988 8.225V4.81248C1.74988 4.11247 2.36234 3.49997 3.06229 3.49997ZM17.9363 17.5H3.06229C2.36234 17.5 1.74988 16.8875 1.74988 16.1875V9.18748L10.3243 12.8625C10.4118 12.8625 10.4118 12.8625 10.4993 12.8625C10.5868 12.8625 10.5868 12.8625 10.6743 12.8625L19.2487 9.18748V16.1875C19.2487 16.8875 18.6362 17.5 17.9363 17.5Z" fill="#D0CDCD"/>
</svg>
