<svg width="23" height="23" viewBox="0 0 23 23" fill="none" xmlns="http://www.w3.org/2000/svg">
<path d="M14.7362 16.1611L14.1663 15.5912L15.591 14.1664L16.161 14.7363C16.4866 15.062 16.4866 15.5505 16.161 15.8761L15.876 16.1611C15.591 16.4867 15.0618 16.4867 14.7362 16.1611Z" fill="#CFD8DC"/>
<path d="M21.5748 23C21.2084 23 20.8421 22.8779 20.5571 22.5929L14.9801 16.731C14.4102 16.161 16.1607 14.4513 16.6899 15.0212L22.5518 20.5982C23.1217 21.1681 23.1217 22.0637 22.5518 22.6336C22.3076 22.8779 21.9412 23 21.5748 23Z" fill="#263238"/>
<path d="M8.95575 17.9115C13.9019 17.9115 17.9115 13.9019 17.9115 8.95575C17.9115 4.00963 13.9019 0 8.95575 0C4.00963 0 0 4.00963 0 8.95575C0 13.9019 4.00963 17.9115 8.95575 17.9115Z" fill="#BDBDBD"/>
<path d="M8.9559 17.5044C13.6772 17.5044 17.5046 13.677 17.5046 8.95574C17.5046 4.23444 13.6772 0.407074 8.9559 0.407074C4.2346 0.407074 0.407227 4.23444 0.407227 8.95574C0.407227 13.677 4.2346 17.5044 8.9559 17.5044Z" fill="#212121"/>
<path d="M8.95551 15.8761C12.7775 15.8761 15.8759 12.7778 15.8759 8.95578C15.8759 5.13378 12.7775 2.03543 8.95551 2.03543C5.1335 2.03543 2.03516 5.13378 2.03516 8.95578C2.03516 12.7778 5.1335 15.8761 8.95551 15.8761Z" fill="#424242"/>
<path d="M10.177 15.469C13.0998 15.469 15.4691 13.0997 15.4691 10.177C15.4691 7.2543 13.0998 4.88498 10.177 4.88498C7.25433 4.88498 4.88501 7.2543 4.88501 10.177C4.88501 13.0997 7.25433 15.469 10.177 15.469Z" fill="#FBE9E7"/>
<path d="M12.2122 14.2478C13.3363 14.2478 14.2476 13.3365 14.2476 12.2124C14.2476 11.0883 13.3363 10.177 12.2122 10.177C11.088 10.177 10.1768 11.0883 10.1768 12.2124C10.1768 13.3365 11.088 14.2478 12.2122 14.2478Z" fill="#FFC107"/>
</svg>
