<svg width="14" height="19" viewBox="0 0 14 19" fill="none" xmlns="http://www.w3.org/2000/svg">
<path d="M13.3497 5.71512L12.6344 5.23828C12.3367 5.03954 11.9354 5.10821 11.7204 5.39493L11.6949 5.42909C11.3751 5.85555 10.7105 5.76032 10.5235 5.26106L10.2882 4.63344C10.0919 4.11003 9.38077 4.03861 9.08439 4.51268L8.41744 5.57987C8.16626 5.98183 7.59005 6.00633 7.3054 5.62714L7.28781 5.60367C7.01799 5.2438 6.47801 5.2438 6.2082 5.60367L6.06708 5.79172C5.82073 6.12019 5.34044 6.15435 5.05027 5.86383L4.86637 5.67993C4.62898 5.44254 4.25324 5.41563 3.98446 5.61713L3.52074 5.96492C3.20055 6.20506 2.74338 6.11536 2.5374 5.77239L2.07022 4.994C1.89978 4.71004 1.54853 4.59169 1.24111 4.71487L0.626953 4.96053V15.2232C0.626953 16.9942 2.06263 18.4303 3.83403 18.4303H7.13013H10.4262C12.1973 18.4303 13.6333 16.9946 13.6333 15.2232V5.81759C13.537 5.80448 13.4404 5.7755 13.3497 5.71512Z" fill="#F75B57"/>
<path d="M10.4269 18.6031H3.83467C1.97115 18.6031 0.455078 17.0871 0.455078 15.2235V4.84393L1.17758 4.55514C1.56539 4.39919 2.00358 4.54755 2.21888 4.90604L2.68606 5.68443C2.76024 5.80761 2.87893 5.89111 3.02005 5.91871C3.16186 5.94631 3.30263 5.91423 3.41787 5.82762L3.8816 5.47983C4.21593 5.22865 4.69208 5.26177 4.98881 5.55884L5.17271 5.74274C5.27553 5.84556 5.41699 5.90042 5.56328 5.88835C5.70854 5.87834 5.84207 5.80554 5.92971 5.68892L6.07083 5.50088C6.2323 5.28558 6.47935 5.16206 6.74847 5.16206C7.0176 5.16206 7.26464 5.28558 7.42612 5.50088C7.54446 5.65856 7.69904 5.73343 7.86638 5.72411C8.03441 5.71687 8.18208 5.63095 8.2711 5.4888L8.93805 4.42127C9.11022 4.14593 9.41937 3.9955 9.74094 4.02724C10.0642 4.05968 10.3358 4.26842 10.4496 4.57239L10.6849 5.20001C10.7502 5.3746 10.8996 5.49467 11.0842 5.52089C11.267 5.54677 11.4451 5.47431 11.5572 5.3256L11.5824 5.29144C11.8525 4.93123 12.3566 4.84497 12.7303 5.09477L13.4456 5.57161C13.5049 5.61129 13.5722 5.63509 13.6571 5.64683L13.8065 5.66718V15.2235C13.8065 17.0871 12.2904 18.6031 10.4269 18.6031ZM0.80011 5.07752V15.2232C0.80011 16.8966 2.16126 18.2578 3.83467 18.2578H10.4269C12.1003 18.2578 13.4614 16.8966 13.4614 15.2232V5.95632C13.3862 5.93355 13.3179 5.90111 13.2544 5.85868L12.5392 5.38184C12.317 5.23382 12.0188 5.28558 11.8587 5.49812L11.8336 5.53228C11.6445 5.7838 11.3457 5.90664 11.0355 5.86282C10.7243 5.81831 10.4728 5.61577 10.3623 5.32181L10.127 4.69419C10.0584 4.51132 9.90138 4.39022 9.70678 4.37055C9.51391 4.35088 9.33449 4.43818 9.23098 4.60414L8.56403 5.67167C8.41601 5.90905 8.16069 6.05707 7.88156 6.0688C7.60174 6.08605 7.33537 5.95425 7.16803 5.73101C6.94169 5.42911 6.53869 5.45223 6.3472 5.7079L6.20608 5.89594C6.05875 6.09261 5.83345 6.21544 5.58813 6.23304C5.34384 6.24994 5.10267 6.16058 4.92911 5.98703L4.74521 5.80313C4.56994 5.62819 4.28735 5.60749 4.08896 5.75655L3.62524 6.10434C3.4334 6.24753 3.18877 6.30411 2.95415 6.25753C2.71918 6.21164 2.51389 6.06742 2.39071 5.86213L1.92354 5.08373C1.79622 4.87154 1.53675 4.7839 1.30627 4.87568L0.80011 5.07752Z" fill="#E24040"/>
<path d="M10.9025 8.32908H11.0581C10.3798 8.32908 9.74144 8.04719 9.24632 7.58174C8.90439 7.26017 8.52382 7.01968 8.11772 6.87063C7.86274 6.98277 7.5529 6.93101 7.35037 6.70846C7.29516 6.70501 7.2403 6.69949 7.18441 6.69949C6.42361 6.69949 5.71595 7.02382 5.12284 7.58174C4.62771 8.04719 3.9894 8.32908 3.31107 8.32908H3.40492C2.81008 8.32908 2.32324 8.81799 2.32324 9.41559V14.0397C2.32324 14.6373 2.81008 15.1262 3.40492 15.1262H3.24448C3.93558 15.1262 4.58493 15.4178 5.08212 15.8998C5.68317 16.4825 6.40567 16.8234 7.18441 16.8234C7.96314 16.8234 8.68564 16.4825 9.28669 15.8998C9.78388 15.4178 10.4336 15.1262 11.1243 15.1262H10.9021C11.497 15.1262 11.9838 14.6373 11.9838 14.0397V9.41524C11.9845 8.81799 11.4977 8.32908 10.9025 8.32908Z" fill="#F4BDBD"/>
<path d="M2.34882 5.88902L2.79012 6.62462C2.98472 6.94896 3.41704 7.03349 3.71963 6.8068L4.15783 6.47833C4.41177 6.28787 4.76681 6.31306 4.99142 6.53768L5.16498 6.71123C5.43928 6.98553 5.89334 6.95344 6.12589 6.64291L6.25907 6.46522C6.51405 6.12502 7.02436 6.12502 7.27934 6.46522L7.2959 6.4873C7.56468 6.84579 8.10948 6.82267 8.34687 6.44279L8.97724 5.43426C9.25741 4.98606 9.92953 5.05369 10.1152 5.54847L10.3377 6.14158C10.5147 6.61324 11.1427 6.70329 11.4449 6.30029L11.4691 6.26786C11.6723 5.99701 12.0515 5.93214 12.333 6.11984L13.0089 6.57045C13.4326 6.85304 14.0002 6.54906 14.0002 6.03979V5.57642C14.0002 2.98315 10.7462 3.72877 10.7462 2.32241V1.95668H10.7683C11.3531 1.95668 11.8313 1.691 11.8313 1.10617V1.06305C11.8313 0.478215 11.3528 0 10.7683 0H3.49398C2.90915 0 2.43094 0.478215 2.43094 1.06305V1.10617C2.43094 1.691 2.90915 1.95668 3.49398 1.95668H3.51572V2.32207C3.51572 3.72842 0.261719 2.98281 0.261719 5.57607V6.14641L1.56525 5.62506C1.85577 5.50879 2.18769 5.62058 2.34882 5.88902Z" fill="#FBD490"/>
<path d="M6.80841 2.21823C6.61795 2.21823 6.46338 2.064 6.46338 1.8732C6.46338 1.6824 6.61795 1.52817 6.80841 1.52817C7.44189 1.52817 7.81487 1.52713 8.18751 1.5261C8.56083 1.52472 8.93416 1.52368 9.56867 1.52368C9.75913 1.52368 9.9137 1.67791 9.9137 1.86871C9.9137 2.05952 9.75913 2.21375 9.56867 2.21375C8.93519 2.21375 8.56221 2.21478 8.18958 2.21582C7.81591 2.2172 7.44258 2.21823 6.80841 2.21823Z" fill="#EEAF4B"/>
<path d="M5.42816 2.21407H4.7381C4.54764 2.21407 4.39307 2.05984 4.39307 1.86903C4.39307 1.67823 4.54764 1.524 4.7381 1.524H5.42816C5.61862 1.524 5.7732 1.67823 5.7732 1.86903C5.7732 2.05984 5.61862 2.21407 5.42816 2.21407Z" fill="#EEAF4B"/>
<path d="M9.07661 12.9353C9.07661 14.0014 7.80102 15.3326 7.1113 15.325C6.48196 15.325 5.146 14.0011 5.146 12.9353C5.146 11.8691 5.91162 11.2809 7.1113 11.2809C8.31098 11.2809 9.07661 11.8695 9.07661 12.9353Z" fill="#ED3F32"/>
<path d="M7.17218 11.4644C6.98172 11.4644 6.82715 11.3102 6.82715 11.1194C6.82715 9.87655 7.83809 8.8656 9.08056 8.8656C9.27102 8.8656 9.42559 9.01983 9.42559 9.21063C9.42559 9.40144 9.27102 9.55567 9.08056 9.55567C8.21832 9.55567 7.51721 10.2571 7.51721 11.1194C7.51721 11.3102 7.36264 11.4644 7.17218 11.4644Z" fill="#88C057"/>
<path d="M7.17284 11.4644C6.98238 11.4644 6.82781 11.3102 6.82781 11.1194C6.82781 10.2571 6.12636 9.55567 5.26447 9.55567C5.07401 9.55567 4.91943 9.40144 4.91943 9.21063C4.91943 9.01983 5.07401 8.8656 5.26447 8.8656C6.50727 8.8656 7.51787 9.87689 7.51787 11.1194C7.51787 11.3102 7.3633 11.4644 7.17284 11.4644Z" fill="#659C35"/>
<path d="M6.46368 13.2551C6.37398 13.2551 6.28427 13.2203 6.21871 13.155C6.15661 13.0895 6.11865 12.9998 6.11865 12.9101C6.11865 12.8204 6.15661 12.7303 6.21871 12.6651C6.34982 12.5374 6.581 12.5374 6.70866 12.6651C6.77076 12.7303 6.80872 12.8204 6.80872 12.9101C6.80872 12.9998 6.77076 13.0895 6.70866 13.155C6.6431 13.2168 6.55305 13.2551 6.46368 13.2551Z" fill="#D13834"/>
<path d="M7.84406 13.2551C7.75435 13.2551 7.66464 13.2171 7.59908 13.155C7.53698 13.0895 7.49902 12.9998 7.49902 12.9101C7.49902 12.8204 7.53698 12.7303 7.59908 12.6651C7.72674 12.5374 7.96137 12.5374 8.08903 12.6651C8.15113 12.7303 8.18909 12.8204 8.18909 12.9101C8.18909 12.9998 8.15113 13.0895 8.08903 13.155C8.02347 13.2168 7.93342 13.2551 7.84406 13.2551Z" fill="#D13834"/>
<path d="M7.15363 14.2902C7.06392 14.2902 6.97421 14.2522 6.90865 14.1901C6.84655 14.1246 6.80859 14.0349 6.80859 13.9452C6.80859 13.8555 6.84655 13.7654 6.90865 13.7002C7.03632 13.5725 7.27094 13.5725 7.3986 13.7002C7.46071 13.7654 7.49866 13.8555 7.49866 13.9452C7.49866 14.0349 7.46071 14.1246 7.3986 14.1901C7.33304 14.2519 7.24299 14.2902 7.15363 14.2902Z" fill="#D13834"/>
</svg>
