<svg width="23" height="24" viewBox="0 0 23 24" fill="none" xmlns="http://www.w3.org/2000/svg">
<path opacity="0.3" d="M11.5 7.188C7.28334 7.188 3.83334 10.6382 3.83334 14.8552C3.83334 19.0722 7.28334 22.5224 11.5 22.5224C15.7167 22.5224 19.1667 19.0722 19.1667 14.8552C19.1667 10.6382 15.7167 7.188 11.5 7.188ZM12.4583 15.5261V16.772C12.4583 17.347 12.075 17.7304 11.5 17.7304C10.925 17.7304 10.5417 17.347 10.5417 16.772V15.5261C9.96667 15.2386 9.58334 14.5677 9.58334 13.8968C9.58334 12.8426 10.4458 11.98 11.5 11.98C12.5542 11.98 13.4167 12.8426 13.4167 13.8968C13.4167 14.5677 13.0333 15.2386 12.4583 15.5261Z" fill="#CDCDCD"/>
<path d="M16.7708 8.62559V5.2712C16.7708 2.396 14.375 0 11.5 0C8.625 0 6.22917 2.396 6.22917 5.2712V8.62559C4.50417 10.159 3.35417 12.3634 3.35417 14.8552C3.35417 19.3597 6.99583 23.0016 11.5 23.0016C16.0042 23.0016 19.6458 19.3597 19.6458 14.8552C19.6458 12.3634 18.4958 10.159 16.7708 8.62559ZM7.1875 5.2712C7.1875 2.8752 9.10416 0.958399 11.5 0.958399C13.8958 0.958399 15.8125 2.8752 15.8125 5.2712V7.9547C14.5667 7.18798 13.1292 6.7088 11.5 6.7088C9.87083 6.7088 8.43333 7.18798 7.1875 7.9547V5.2712ZM11.5 22.0432C7.57083 22.0432 4.3125 18.7846 4.3125 14.8552C4.3125 10.9258 7.57083 7.66719 11.5 7.66719C15.4292 7.66719 18.6875 10.9258 18.6875 14.8552C18.6875 18.7846 15.4292 22.0432 11.5 22.0432Z" fill="#CDCDCD"/>
<path d="M11.5 11.5008C10.1583 11.5008 9.10417 12.555 9.10417 13.8968C9.10417 14.6635 9.48751 15.3344 10.0625 15.8136V16.772C10.0625 17.5387 10.7333 18.2096 11.5 18.2096C12.2667 18.2096 12.9375 17.5387 12.9375 16.772V15.8136C13.5125 15.3344 13.8958 14.6635 13.8958 13.8968C13.8958 12.555 12.8417 11.5008 11.5 11.5008ZM12.1709 15.1427C11.9792 15.2385 11.9792 15.4302 11.9792 15.5261V16.772C11.9792 17.0595 11.7875 17.2512 11.5 17.2512C11.2125 17.2512 11.0208 17.0595 11.0208 16.772V15.5261C11.0208 15.3344 10.925 15.2385 10.8292 15.1427C10.35 14.8552 10.0625 14.376 10.0625 13.8968C10.0625 13.1301 10.7333 12.4592 11.5 12.4592C12.2667 12.4592 12.9375 13.1301 12.9375 13.8968C12.9375 14.376 12.65 14.8552 12.1709 15.1427Z" fill="#CDCDCD"/>
</svg>
