<svg width="20" height="20" viewBox="0 0 20 20" fill="none" xmlns="http://www.w3.org/2000/svg">
<g clip-path="url(#clip0)">
<path d="M9.99922 20C7.61673 20 5.37697 19.0723 3.69166 17.3883C2.00773 15.703 1.07861 13.4633 1.07861 11.0794C1.07861 8.69553 2.00773 6.45578 3.69166 4.77047C4.22827 4.23386 5.09563 4.23386 5.63224 4.77047C6.16885 5.30708 6.16885 6.17443 5.63224 6.71104C4.4657 7.87896 3.82342 9.42977 3.82342 11.0794C3.82342 12.729 4.4657 14.2812 5.63224 15.4477C6.79878 16.6143 8.34822 17.2552 9.99922 17.2552C11.6502 17.2552 13.1997 16.6129 14.3662 15.4477C15.5341 14.2812 16.175 12.7304 16.175 11.0794C16.175 9.4284 15.5327 7.87758 14.3676 6.71104C13.831 6.17443 13.831 5.30708 14.3676 4.77047C14.9042 4.23386 15.7715 4.23386 16.3081 4.77047C17.9921 6.45715 18.9212 8.69691 18.9212 11.0794C18.9212 13.4619 17.9921 15.703 16.3081 17.3883C14.6228 19.0723 12.3831 20 9.99922 20Z" fill="white"/>
<path d="M9.99911 9.60681C9.24017 9.60681 8.62671 8.99197 8.62671 8.23441V1.3724C8.62671 0.614836 9.24017 0 9.99911 0C10.758 0 11.3715 0.614836 11.3715 1.3724V8.23441C11.3715 8.99197 10.7594 9.60681 9.99911 9.60681Z" fill="white"/>
</g>
<defs>
<clipPath id="clip0">
<rect width="20" height="20" fill="white"/>
</clipPath>
</defs>
</svg>
