<svg width="11" height="19" viewBox="0 0 11 19" fill="none" xmlns="http://www.w3.org/2000/svg">
<path d="M4.6666 18.9998L0 16.9998V5.99992L4.6666 7.66657V18.9998Z" fill="#C6C6C6"/>
<path d="M11.0002 17.3331L4.66699 18.9998V7.66657L11.0002 5.99992V17.3331Z" fill="#E6E6E6"/>
<path d="M8.66626 1.33332L2.33301 2.66663V1.33332L8.66626 0V1.33332Z" fill="#E2E2E2"/>
<path d="M4.6666 7.66656L0 5.99991L2.3333 2.66663L4.6666 7.66656Z" fill="#D1D1D1"/>
<path d="M10.9996 5.99993L4.66631 7.66658L2.33301 2.66664L8.66626 1.33333L10.9996 5.99993Z" fill="#EAEAEA"/>
<path d="M11.0002 12.3332L4.66699 17.3331V12.3332L11.0002 6.99991V12.3332Z" fill="#3DABEF"/>
<path d="M0 15.3331L4.6666 17.3331V12.3332L0 10.3332V15.3331Z" fill="#2B9DD6"/>
<path d="M7.40512 5.62493C6.66613 5.81826 6.4198 5.15061 6.30347 4.70728C6.18747 4.26395 6.07547 3.56096 6.81446 3.36763C7.55345 3.1743 7.79979 3.84196 7.91578 4.28528C8.03178 4.72861 8.14411 5.4316 7.40512 5.62493Z" fill="white"/>
<path d="M7.3335 1.61398L8.00015 1.47365V0.140335L7.3335 0.280667V1.61398Z" fill="#EDEDED"/>
<path d="M6 1.89464L6.66666 1.75431V0.42099L6 0.561321V1.89464Z" fill="#EDEDED"/>
<path d="M4.66699 2.17531L5.33365 2.03498V0.70166L4.66699 0.841992V2.17531Z" fill="#EDEDED"/>
<path d="M3.33301 2.45596L3.99967 2.31563V0.982315L3.33301 1.12265V2.45596Z" fill="#EDEDED"/>
</svg>
