<svg width="20" height="20" viewBox="0 0 20 20" fill="none" xmlns="http://www.w3.org/2000/svg">
<path d="M13.3679 8.00438L18.952 0H20.0001L14.0432 8.53813C13.8289 8.3475 13.6064 8.16594 13.3679 8.00438Z" fill="#8F8F8F" fill-opacity="0.1"/>
<path d="M11.1326 7.03969L16.0441 0H18.9519L13.3679 8.00437C12.701 7.55156 11.9444 7.2225 11.1326 7.03969Z" fill="#8F8F8F" fill-opacity="0.1"/>
<path d="M10.2087 6.90125L15.0237 0H16.0441L11.1325 7.03969C10.8319 6.97219 10.5234 6.92625 10.2087 6.90125Z" fill="#8F8F8F" fill-opacity="0.1"/>
<path d="M10 20C13.6244 20 16.5625 17.0619 16.5625 13.4375C16.5625 9.81313 13.6244 6.875 10 6.875C6.37563 6.875 3.4375 9.81313 3.4375 13.4375C3.4375 17.0619 6.37563 20 10 20Z" fill="#8F8F8F" fill-opacity="0.1"/>
<path d="M10 18.2812C12.6751 18.2812 14.8438 16.1126 14.8438 13.4375C14.8438 10.7624 12.6751 8.59375 10 8.59375C7.32487 8.59375 5.15625 10.7624 5.15625 13.4375C5.15625 16.1126 7.32487 18.2812 10 18.2812Z" fill="#8F8F8F" fill-opacity="0.1"/>
<path d="M19.9681 8.16687C19.9863 8.16406 20 8.14844 20 8.12969V8.12C20 8.10156 19.9866 8.08563 19.9681 8.08281C18.9238 7.92625 18.3234 7.32563 18.1669 6.28156C18.1641 6.26344 18.1484 6.25 18.1297 6.25H18.1203C18.1019 6.25 18.0859 6.26344 18.0831 6.28188C17.9266 7.32594 17.3262 7.92656 16.2819 8.08313C16.2634 8.08594 16.25 8.10156 16.25 8.12031V8.12969C16.25 8.14812 16.2634 8.16406 16.2819 8.16687C17.3262 8.32344 17.9266 8.92406 18.0831 9.96812C18.0859 9.98656 18.1016 10 18.1203 10H18.1337C18.15 10 18.1638 9.98812 18.1663 9.97219C18.3219 8.92562 18.9225 8.32375 19.9681 8.16687Z" fill="#8F8F8F" fill-opacity="0.1"/>
<path d="M4.33781 17.8612C4.35906 17.8581 4.375 17.8397 4.375 17.8181V17.8069C4.375 17.7853 4.35906 17.7669 4.33781 17.7638C3.11938 17.5809 2.41906 16.8803 2.23625 15.6622C2.23312 15.6406 2.21469 15.625 2.19312 15.625H2.18219C2.16062 15.625 2.14219 15.6409 2.13906 15.6622C1.95625 16.8803 1.25594 17.5809 0.0375003 17.7638C0.0156253 17.7669 0 17.7853 0 17.8069V17.8178C0 17.8394 0.0159373 17.8578 0.0371873 17.8609C1.25562 18.0437 1.95594 18.7444 2.13875 19.9625C2.14188 19.9844 2.16031 20 2.18188 20H2.1975C2.21656 20 2.2325 19.9863 2.23531 19.9675C2.41719 18.7466 3.11781 18.0444 4.33781 17.8612Z" fill="#8F8F8F" fill-opacity="0.1"/>
<path d="M10 6.875C6.37563 6.875 3.4375 9.81313 3.4375 13.4375C3.4375 15.275 4.19469 16.9341 5.41188 18.1253L14.6878 8.84938C13.4966 7.63219 11.8375 6.875 10 6.875Z" fill="#8F8F8F" fill-opacity="0.1"/>
<path d="M10 8.59375C7.32469 8.59375 5.15625 10.7622 5.15625 13.4375C5.15625 14.8003 5.72125 16.0297 6.62719 16.91L13.4725 10.0647C12.5922 9.15875 11.3628 8.59375 10 8.59375Z" fill="#8F8F8F" fill-opacity="0.1"/>
<path d="M6.63219 8.00438L1.04813 0H0L5.95687 8.53813C6.17125 8.3475 6.39375 8.16594 6.63219 8.00438Z" fill="#8F8F8F" fill-opacity="0.1"/>
<path d="M8.86747 7.03969L3.95591 0H1.0481L6.63216 8.00437C7.29903 7.55156 8.0556 7.2225 8.86747 7.03969Z" fill="#8F8F8F" fill-opacity="0.1"/>
<path d="M9.79137 6.90125L4.97637 0H3.95605L8.86762 7.03969C9.16824 6.97219 9.47668 6.92625 9.79137 6.90125Z" fill="#8F8F8F" fill-opacity="0.1"/>
</svg>
