<svg width="27" height="20" viewBox="0 0 27 20" fill="none" xmlns="http://www.w3.org/2000/svg">
<g opacity="0.1">
<path fill-rule="evenodd" clip-rule="evenodd" d="M23.5171 6.03946H2.57373V11.5515V16.5865C2.57373 18.3192 3.74143 19.7254 5.16026 19.7254H20.9305C22.3494 19.7254 23.5171 18.3066 23.5171 16.5865V11.5515V6.03946Z" fill="#D2D3D5"/>
<path fill-rule="evenodd" clip-rule="evenodd" d="M23.4167 5.21072H2.56128V5.00982C2.56128 3.28966 3.71643 1.88339 5.13525 1.88339H20.8427C22.2616 1.88339 23.4167 3.28966 23.4167 5.00982V5.21072Z" fill="#D2D3D5"/>
<path fill-rule="evenodd" clip-rule="evenodd" d="M11.7524 1.88339H13.9372V1.33093C13.9372 0.602686 13.4475 0 12.8448 0C12.2421 0 11.7524 0.602686 11.7524 1.33093V1.88339Z" fill="black"/>
<path fill-rule="evenodd" clip-rule="evenodd" d="M23.4546 10.434V6.02689H24.2079C25.1999 6.02689 26.016 7.01881 26.016 8.22418C26.016 9.42955 25.1999 10.4215 24.2079 10.4215H23.4546V10.434Z" fill="#D2D3D5"/>
<path fill-rule="evenodd" clip-rule="evenodd" d="M12.8445 19.7129V6.03946H2.57373V11.5515V16.5865C2.57373 18.3192 3.74143 19.7254 5.16026 19.7254H12.8445V19.7129Z" fill="#C8C9C9"/>
<path fill-rule="evenodd" clip-rule="evenodd" d="M2.56128 5.21072H12.8446V1.88339H11.7522H5.13525C3.71643 1.88339 2.56128 3.28966 2.56128 5.00982V5.21072Z" fill="#C8C9C9"/>
<path fill-rule="evenodd" clip-rule="evenodd" d="M11.7524 1.33093V1.88339H12.8448V0C12.2421 0 11.7524 0.602686 11.7524 1.33093Z" fill="#373435"/>
<path fill-rule="evenodd" clip-rule="evenodd" d="M2.56141 10.4466V6.03946H1.80806C0.816137 6.03946 0 7.03138 0 8.23675C0 9.44212 0.816137 10.434 1.80806 10.434H2.56141V10.4466Z" fill="#C8C9C9"/>
</g>
</svg>
