<svg width="26" height="15" viewBox="0 0 26 15" fill="none" xmlns="http://www.w3.org/2000/svg">
<path fill-rule="evenodd" clip-rule="evenodd" d="M26 0.751633H0C0 8.08242 5.8242 14.0324 13 14.0324C20.1758 14.0324 26 8.08242 26 0.751633Z" fill="#F1656A"/>
<path fill-rule="evenodd" clip-rule="evenodd" d="M8.90847 13.1537H16.9198L17.571 14.3839C18.038 15.0743 17.3499 14.999 16.1089 14.9739C14.6467 14.9362 13.5162 14.9739 12.3489 14.9739C11.3782 14.9739 10.3952 14.9864 9.17879 14.9739C8.15894 14.9613 7.95006 15.0492 8.51527 13.9069L8.90847 13.1537Z" fill="#F1656A"/>
<path fill-rule="evenodd" clip-rule="evenodd" d="M13 13.1534V0.763916H0C0 6.60093 3.6862 11.5593 8.81002 13.3417L8.90832 13.166H13V13.1534Z" fill="#F37474"/>
<path fill-rule="evenodd" clip-rule="evenodd" d="M13 13.1537H8.9083L8.81 13.3295L8.50282 13.8943C7.9376 15.0366 8.14649 14.9488 9.16634 14.9613C10.3828 14.9739 11.3658 14.9613 12.3365 14.9613C12.5576 14.9613 12.7665 14.9613 12.9877 14.9613V14.0324V13.1537H13Z" fill="#F37474"/>
</svg>
