<svg width="26" height="26" viewBox="0 0 26 26" fill="none" xmlns="http://www.w3.org/2000/svg">
<path d="M20.8 14H4V25.4286H20.8V14Z" fill="#E6E6E6"/>
<path d="M8.2001 25.4285H6.1001V25.9999H8.2001V25.4285Z" fill="#D1D3D4"/>
<path d="M18.7001 25.4285H16.6001V25.9999H18.7001V25.4285Z" fill="#D1D3D4"/>
<path d="M16.6 15.1428H5.05005V24.2857H16.6V15.1428Z" fill="#25374B"/>
<path d="M16.075 15.7144H5.57495V23.7144H16.075V15.7144Z" fill="#33485D"/>
<path d="M18.6999 18.5714C19.2798 18.5714 19.7499 18.0597 19.7499 17.4285C19.7499 16.7973 19.2798 16.2856 18.6999 16.2856C18.12 16.2856 17.6499 16.7973 17.6499 17.4285C17.6499 18.0597 18.12 18.5714 18.6999 18.5714Z" fill="#D1D3D4"/>
<path d="M19.7499 19.7144H17.6499V20.8572H19.7499V19.7144Z" fill="#D1D3D4"/>
<path d="M16.6001 25.4285L17.1251 25.9999H18.7001V25.4285H16.6001Z" fill="#C9CACC"/>
<path d="M6.1001 25.4285L6.6251 25.9999H8.2001V25.4285H6.1001Z" fill="#C9CACC"/>
<path d="M19.75 21.4285H18.7V21.9999H19.75V21.4285Z" fill="#D1D3D4"/>
<path d="M18.1749 21.4285H17.6499V21.9999H18.1749V21.4285Z" fill="#D1D3D4"/>
<path fill-rule="evenodd" clip-rule="evenodd" d="M17.9375 8.49141H1.96191V8.33752C1.96191 7.01985 2.84677 5.94263 3.93361 5.94263H15.9658C17.0526 5.94263 17.9375 7.01985 17.9375 8.33752V8.49141Z" fill="#D2D3D5"/>
<path fill-rule="evenodd" clip-rule="evenodd" d="M9.00244 5.94271H10.676V5.51951C10.676 4.96167 10.3009 4.5 9.83921 4.5C9.37754 4.5 9.00244 4.96167 9.00244 5.51951V5.94271Z" fill="black"/>
<path fill-rule="evenodd" clip-rule="evenodd" d="M18 10.9286V9H18.5672C19.3141 9 19.9286 9.43407 19.9286 9.96154C19.9286 10.489 19.3141 10.9231 18.5672 10.9231H18V10.9286Z" fill="#D2D3D5"/>
<path fill-rule="evenodd" clip-rule="evenodd" d="M1.96191 8.49141H9.83909V5.94263H9.00232H3.93361C2.84677 5.94263 1.96191 7.01985 1.96191 8.33752V8.49141Z" fill="#C8C9C9"/>
<path fill-rule="evenodd" clip-rule="evenodd" d="M9.00244 5.51951V5.94271H9.83921V4.5C9.37754 4.5 9.00244 4.96167 9.00244 5.51951Z" fill="#373435"/>
<path fill-rule="evenodd" clip-rule="evenodd" d="M1.92857 10.9286V9H1.36134C0.614496 9 0 9.43407 0 9.96154C0 10.489 0.614496 10.9231 1.36134 10.9231H1.92857V10.9286Z" fill="#C8C9C9"/>
<path fill-rule="evenodd" clip-rule="evenodd" d="M18.0001 9H1.92871V12.6248V15.9358C1.92871 17.0752 2.82478 18 3.91355 18H16.0153C17.1041 18 18.0001 17.067 18.0001 15.9358V12.6248V9Z" fill="#D2D3D5"/>
<path fill-rule="evenodd" clip-rule="evenodd" d="M18 14.1427V11.5713H18.5672C19.3141 11.5713 19.9286 12.15 19.9286 12.8533C19.9286 13.5566 19.3141 14.1354 18.5672 14.1354H18V14.1427Z" fill="#D2D3D5"/>
<path fill-rule="evenodd" clip-rule="evenodd" d="M9.643 17.9917V9H1.92871V12.6248V15.9358C1.92871 17.0752 2.80576 18 3.87143 18H9.643V17.9917Z" fill="#C8C9C9"/>
<path fill-rule="evenodd" clip-rule="evenodd" d="M1.92857 14.1427V11.5713H1.36134C0.614496 11.5713 0 12.15 0 12.8533C0 13.5566 0.614496 14.1354 1.36134 14.1354H1.92857V14.1427Z" fill="#C8C9C9"/>
<path fill-rule="evenodd" clip-rule="evenodd" d="M16.6561 2.74286C17.4476 2.52106 18.0002 2.01751 18.0002 1.43182C18.0002 0.641047 16.9928 0 15.7502 0C14.6606 0 13.7519 0.492883 13.5446 1.1474C13.0763 0.939828 12.507 0.818115 11.893 0.818115C10.3447 0.818115 9.08049 1.59219 9.00386 2.56538C8.8139 2.4949 8.59298 2.45453 8.35725 2.45453C7.64717 2.45453 7.07153 2.82084 7.07153 3.27271C7.07153 3.72458 7.64717 4.09089 8.35725 4.09089C8.83861 4.09089 9.25818 3.92256 9.47854 3.67335C9.99626 4.17142 10.8844 4.49993 11.893 4.49993C12.3896 4.49993 12.857 4.4203 13.2654 4.28001C13.6125 4.4194 14.0236 4.50005 14.4644 4.50005C15.7071 4.50005 16.7144 3.859 16.7144 3.06823C16.7144 2.95631 16.6942 2.84739 16.6561 2.74286Z" fill="#DCDCDC"/>
<path d="M20.6105 17.5399L20.2388 17.1682L21.168 16.239L21.5397 16.6107C21.752 16.8231 21.752 17.1417 21.5397 17.3541L21.3538 17.5399C21.168 17.7523 20.8228 17.7523 20.6105 17.5399Z" fill="#CFD8DC"/>
<path d="M25.0704 22C24.8315 22 24.5925 21.9204 24.4067 21.7345L20.7695 17.9115C20.3979 17.5398 21.5394 16.4248 21.8846 16.7965L25.7076 20.4337C26.0793 20.8053 26.0793 21.3894 25.7076 21.7611C25.5483 21.9204 25.3094 22 25.0704 22Z" fill="#263238"/>
<path d="M16.8407 18.6814C20.0664 18.6814 22.6814 16.0664 22.6814 12.8407C22.6814 9.61497 20.0664 7 16.8407 7C13.615 7 11 9.61497 11 12.8407C11 16.0664 13.615 18.6814 16.8407 18.6814Z" fill="#BDBDBD"/>
<path d="M16.8408 18.4158C19.92 18.4158 22.4161 15.9197 22.4161 12.8406C22.4161 9.76149 19.92 7.26538 16.8408 7.26538C13.7617 7.26538 11.2656 9.76149 11.2656 12.8406C11.2656 15.9197 13.7617 18.4158 16.8408 18.4158Z" fill="#212121"/>
<path d="M16.8407 17.3539C19.3333 17.3539 21.3539 15.3333 21.3539 12.8407C21.3539 10.3481 19.3333 8.32739 16.8407 8.32739C14.3481 8.32739 12.3274 10.3481 12.3274 12.8407C12.3274 15.3333 14.3481 17.3539 16.8407 17.3539Z" fill="#424242"/>
<path d="M17.6371 17.0884C19.5432 17.0884 21.0884 15.5432 21.0884 13.6371C21.0884 11.731 19.5432 10.1858 17.6371 10.1858C15.731 10.1858 14.1858 11.731 14.1858 13.6371C14.1858 15.5432 15.731 17.0884 17.6371 17.0884Z" fill="#FBE9E7"/>
<path d="M18.9644 16.2921C19.6975 16.2921 20.2918 15.6978 20.2918 14.9646C20.2918 14.2315 19.6975 13.6372 18.9644 13.6372C18.2313 13.6372 17.637 14.2315 17.637 14.9646C17.637 15.6978 18.2313 16.2921 18.9644 16.2921Z" fill="#FFC107"/>
</svg>
