<svg width="20" height="22" viewBox="0 0 20 22" fill="none" xmlns="http://www.w3.org/2000/svg">
<path d="M15.3667 10.7287C15.9807 10.8743 16.6517 10.8712 17.3675 10.5691C18.598 10.0501 19.4729 8.86993 19.5002 7.53458C19.5311 6.03889 18.5821 4.76332 17.2527 4.29695C17.1593 2.93903 16.031 1.86616 14.6497 1.86616C14.6457 1.86616 14.6418 1.86656 14.6378 1.86656C14.6624 1.66109 14.6485 1.44374 14.582 1.21689C14.3951 0.579502 13.8349 0.0905721 13.1754 0.012185C12.6346 -0.0519499 12.1381 0.141643 11.7902 0.485675C11.46 0.187566 11.0261 0.000704072 10.5451 0.000704072C9.51455 0.000704072 8.67921 0.836042 8.67921 1.86656C8.67921 1.86972 8.68 1.87289 8.68 1.87606C7.42739 1.97107 6.44003 3.01544 6.44003 4.2922C6.44003 4.48738 6.46537 4.67622 6.50892 4.85793C5.01798 4.92009 3.82752 6.14459 3.82752 7.65057C3.82752 8.16088 3.96609 8.63754 4.20481 9.04967C3.74676 9.42616 3.45459 9.99704 3.45459 10.636C3.45459 11.5295 4.02666 12.2877 4.82399 12.5696C4.72106 16.2185 6.02315 18.3714 8.54223 21.2713C8.58736 21.3232 8.63289 21.3754 8.67881 21.4273C8.68871 21.4384 8.69861 21.4495 8.70851 21.4606C9.75604 22.636 12.1187 21.7357 11.6104 20.2456C8.89656 12.2841 17.2618 13.435 17.2618 13.435C17.2618 13.435 17.5009 11.0268 15.3429 10.9139C15.3457 10.8538 15.3485 10.7932 15.3512 10.733C15.3568 10.7318 15.3611 10.7298 15.3667 10.7287Z" fill="#88C057"/>
<path d="M8.7091 21.4607C8.69921 21.4496 8.68931 21.4385 8.67941 21.4274C8.63349 21.3755 8.58796 21.3237 8.54283 21.2714C6.02335 18.3715 4.72126 16.2186 4.82458 12.5696C4.02725 12.2878 3.45519 11.5296 3.45519 10.6361C3.45519 9.99673 3.74736 9.42625 4.20541 9.04975C3.96708 8.63763 3.82812 8.16097 3.82812 7.65066C3.82812 6.14468 5.01857 4.91978 6.50951 4.85802C6.46596 4.6763 6.44063 4.48746 6.44063 4.29229C6.44063 3.278 7.06456 2.41258 7.94859 2.05073C7.89 1.85872 7.81557 1.66513 7.71778 1.47154C7.23004 0.505159 6.37174 -0.101748 5.58827 0.0257305C4.94256 0.130643 4.49085 0.657578 4.29646 1.36623C3.75488 1.00161 3.15391 0.85988 2.61114 1.0511C1.4476 1.46085 1.08061 3.1339 1.7469 4.68343C1.74888 4.68818 1.75165 4.69214 1.75363 4.69689C0.49231 5.29944 0.156988 7.09086 0.956695 8.70691C1.07348 8.94246 1.20928 9.15902 1.35734 9.35894C-0.035813 9.93497 -0.403599 11.684 0.473703 13.2126C0.753997 13.7011 1.12851 14.1033 1.54499 14.407C1.34784 14.8785 1.3906 15.4585 1.70414 15.9937C2.12498 16.7127 2.91479 17.1395 3.65432 17.1343C4.95404 19.6866 6.54871 20.6768 8.96327 21.7014C8.9886 21.712 9.01394 21.7227 9.03928 21.733C8.92051 21.6578 8.80768 21.5715 8.7091 21.4607Z" fill="#659C35"/>
<path d="M9.65548 9.66806C9.67844 9.61738 9.68913 9.56433 9.68992 9.51208C9.97378 8.79788 10.3154 8.1985 10.671 7.69848C12.4461 7.32951 13.7855 7.88416 13.8151 7.89683C13.867 7.91979 13.9209 7.93008 13.9731 7.93008C14.1255 7.93008 14.2708 7.8414 14.3361 7.69334C14.424 7.49301 14.3326 7.25944 14.1327 7.17155C14.0776 7.14779 12.9854 6.68143 11.4148 6.79584C12.1821 5.99574 12.8555 5.6327 12.9561 5.58203C13.5313 5.30649 14.3718 5.66279 14.6477 5.82353C14.7107 5.86074 14.7795 5.87816 14.848 5.87816C14.9834 5.87816 15.1157 5.80848 15.1893 5.68338C15.3001 5.49493 15.238 5.25265 15.0491 5.1414C15.004 5.11448 14.114 4.60021 13.2023 4.70354C13.2803 4.38247 13.4533 4.0903 13.5416 3.97312C13.6742 3.79971 13.641 3.55149 13.4672 3.41886C13.2941 3.28624 13.0451 3.3187 12.9125 3.4929C12.8876 3.52496 12.3682 4.21382 12.3693 5.0068C11.7933 5.35954 10.3051 6.42885 9.26394 8.57776C9.20773 8.69337 9.15349 8.81768 9.09965 8.94238C8.01965 8.20404 8.1974 6.89046 8.2073 6.82672C8.24095 6.61136 8.09407 6.40905 7.87831 6.37461C7.66294 6.34017 7.45945 6.48744 7.42501 6.7032C7.3102 7.42175 7.47489 8.9024 8.80866 9.69775C8.51412 10.564 8.29083 11.598 8.22195 12.8186C8.21403 12.857 8.21245 12.8942 8.21561 12.9322C8.17444 13.7877 8.21403 14.7367 8.3518 15.7759C7.84981 15.4996 7.62019 15.0954 7.60554 15.0681C7.50221 14.8761 7.26388 14.8028 7.07148 14.9042C6.87828 15.0059 6.80346 15.2454 6.9056 15.439C6.92658 15.479 7.40047 16.3551 8.49591 16.6936C8.78135 18.2598 9.29007 20.0183 10.1127 21.9919C10.3839 21.974 10.648 21.9024 10.8816 21.786C10.8804 21.7828 10.8808 21.7793 10.8796 21.7757C10.0161 19.7214 9.49515 17.9118 9.21802 16.3128C9.21644 16.3033 9.21564 16.2941 9.21366 16.285C9.0078 15.0855 8.94089 14.0075 8.97969 13.0419C9.53394 12.0969 11.163 12.0589 11.1797 12.0585C11.3982 12.0549 11.5728 11.8756 11.5696 11.657C11.5665 11.4401 11.3903 11.2667 11.1741 11.2667C11.1726 11.2667 11.171 11.2667 11.1694 11.2667C11.1049 11.2675 9.97616 11.292 9.08064 11.8534C9.18991 11.0695 9.37163 10.3751 9.59689 9.75832C9.62025 9.73101 9.64044 9.70131 9.65548 9.66806Z" fill="#659C35"/>
</svg>
