<svg width="19" height="17" viewBox="0 0 19 17" fill="none" xmlns="http://www.w3.org/2000/svg">
<path d="M18.0637 14.493H1.58751C1.07263 14.493 0.651367 14.0717 0.651367 13.5569C0.651367 13.042 1.07263 12.6207 1.58751 12.6207H18.0637C18.5786 12.6207 18.9998 13.042 18.9998 13.5569C18.9998 14.0717 18.5786 14.493 18.0637 14.493Z" fill="#6A3311"/>
<path d="M18.0637 12.9952H1.58751C1.07263 12.9952 0.651367 12.5739 0.651367 12.059C0.651367 11.5441 1.07263 11.1229 1.58751 11.1229H18.0637C18.5786 11.1229 18.9998 11.5441 18.9998 12.059C18.9998 12.5739 18.5786 12.9952 18.0637 12.9952Z" fill="#A8431A"/>
<path d="M3.08535 10.3739C2.05559 10.3739 2.19264 9.99649 2.1492 9.62503C1.15988 9.81263 0.651367 10.3754 0.651367 10.9356C0.651367 11.6595 1.82492 12.2462 3.27258 12.2462C4.72024 12.2462 5.89379 11.6595 5.89379 10.9356C5.89379 10.7342 5.80018 10.5443 5.63803 10.3739H3.08535Z" fill="#ED3F32"/>
<path d="M5.63085 10.3739C5.79449 10.5447 5.89372 10.7338 5.89372 10.9356C5.89372 11.2412 5.6829 11.5217 5.33203 11.7445C5.81209 12.0497 6.55501 12.2462 7.39155 12.2462C8.83921 12.2462 10.0128 11.6595 10.0128 10.9356C10.0128 10.7342 9.91915 10.5443 9.75701 10.3739H5.63085Z" fill="#F9EA80"/>
<path d="M17.5022 8.1272H1.7749V10.374H17.5022V8.1272Z" fill="#D28F1B"/>
<path d="M17.5022 8.1272H1.7749L9.63854 0.263565L17.5022 8.1272Z" fill="#FDE3AA"/>
<path d="M17.5024 10.2013V10.3736H14.0547C14.0109 10.3946 13.9701 10.4163 13.9304 10.4387C14.057 10.5923 14.1322 10.7589 14.1322 10.9356C14.1322 11.2023 13.972 11.4502 13.6982 11.6572C14.1416 12.0081 15.0081 12.2463 16.0045 12.2463C17.4522 12.2463 18.6257 11.7434 18.6257 11.1229C18.6257 10.7413 18.1809 10.4047 17.5024 10.2013Z" fill="#F9EA80"/>
<path d="M9.75239 10.3739C9.91603 10.5443 10.0126 10.7338 10.0126 10.9356C10.0126 11.182 9.87447 11.4112 9.63818 11.6082C10.0961 11.9897 10.9297 12.2462 11.8849 12.2462C13.3326 12.2462 14.5061 11.6595 14.5061 10.9356C14.5061 10.7342 14.4125 10.5443 14.2504 10.3739H9.75239Z" fill="#ED3F32"/>
<path d="M13.3832 7.00382C13.5901 7.00382 13.7577 6.83616 13.7577 6.62936C13.7577 6.42255 13.5901 6.2549 13.3832 6.2549C13.1764 6.2549 13.0088 6.42255 13.0088 6.62936C13.0088 6.83616 13.1764 7.00382 13.3832 7.00382Z" fill="#D28F1B"/>
<path d="M9.26411 3.6337C9.47092 3.6337 9.63857 3.46605 9.63857 3.25924C9.63857 3.05243 9.47092 2.88478 9.26411 2.88478C9.0573 2.88478 8.88965 3.05243 8.88965 3.25924C8.88965 3.46605 9.0573 3.6337 9.26411 3.6337Z" fill="#D28F1B"/>
<path d="M5.8935 7.00382C6.10031 7.00382 6.26796 6.83616 6.26796 6.62936C6.26796 6.42255 6.10031 6.2549 5.8935 6.2549C5.68669 6.2549 5.51904 6.42255 5.51904 6.62936C5.51904 6.83616 5.68669 7.00382 5.8935 7.00382Z" fill="#D28F1B"/>
<path d="M10.7617 5.88045C10.9685 5.88045 11.1361 5.7128 11.1361 5.50599C11.1361 5.29918 10.9685 5.13153 10.7617 5.13153C10.5549 5.13153 10.3872 5.29918 10.3872 5.50599C10.3872 5.7128 10.5549 5.88045 10.7617 5.88045Z" fill="#D28F1B"/>
<path d="M8.51508 6.2549C8.72189 6.2549 8.88954 6.08725 8.88954 5.88044C8.88954 5.67363 8.72189 5.50598 8.51508 5.50598C8.30828 5.50598 8.14062 5.67363 8.14062 5.88044C8.14062 6.08725 8.30828 6.2549 8.51508 6.2549Z" fill="#D28F1B"/>
<path d="M18.2506 14.493H1.10938V17H18.2506V14.493Z" fill="#FDE3AA"/>
<path d="M12.2597 15.6164C12.4665 15.6164 12.6342 15.4487 12.6342 15.2419C12.6342 15.0351 12.4665 14.8675 12.2597 14.8675C12.0529 14.8675 11.8853 15.0351 11.8853 15.2419C11.8853 15.4487 12.0529 15.6164 12.2597 15.6164Z" fill="#D28F1B"/>
<path d="M15.2553 16.3653C15.4621 16.3653 15.6298 16.1976 15.6298 15.9908C15.6298 15.784 15.4621 15.6164 15.2553 15.6164C15.0485 15.6164 14.8809 15.784 14.8809 15.9908C14.8809 16.1976 15.0485 16.3653 15.2553 16.3653Z" fill="#D28F1B"/>
<path d="M3.27241 16.3653C3.47922 16.3653 3.64687 16.1976 3.64687 15.9908C3.64687 15.784 3.47922 15.6164 3.27241 15.6164C3.0656 15.6164 2.89795 15.784 2.89795 15.9908C2.89795 16.1976 3.0656 16.3653 3.27241 16.3653Z" fill="#D28F1B"/>
<path d="M9.63862 16.3653C9.84543 16.3653 10.0131 16.1976 10.0131 15.9908C10.0131 15.784 9.84543 15.6164 9.63862 15.6164C9.43181 15.6164 9.26416 15.784 9.26416 15.9908C9.26416 16.1976 9.43181 16.3653 9.63862 16.3653Z" fill="#D28F1B"/>
<path d="M6.26801 15.6164C6.47482 15.6164 6.64247 15.4487 6.64247 15.2419C6.64247 15.0351 6.47482 14.8675 6.26801 14.8675C6.06121 14.8675 5.89355 15.0351 5.89355 15.2419C5.89355 15.4487 6.06121 15.6164 6.26801 15.6164Z" fill="#D28F1B"/>
</svg>
