<svg width="27" height="18" viewBox="0 0 27 18" fill="none" xmlns="http://www.w3.org/2000/svg">
<path d="M21.5916 18H6.06766C5.47849 18 4.97361 17.5777 4.87 16.9973L2.854 5.70732H24.8052L22.7892 16.9973C22.6856 17.5777 22.1807 18 21.5916 18Z" fill="#E6E6E6"/>
<path d="M23.9271 5.70732H3.73193L7.32228 2.11698C7.5532 1.88605 7.86667 1.7561 8.19374 1.7561H19.4657C19.7923 1.7561 20.1058 1.88605 20.3372 2.11698L23.9271 5.70732Z" fill="#D2D5D7"/>
<path d="M15.5854 2.63415H12.0732V1.7561C12.0732 0.78761 12.8609 0 13.8293 0C14.7978 0 15.5854 0.78761 15.5854 1.7561V2.63415ZM12.9513 1.7561H14.7074C14.7074 1.27185 14.3136 0.878049 13.8293 0.878049C13.3451 0.878049 12.9513 1.27185 12.9513 1.7561Z" fill="#D2D5D7"/>
<path d="M24.2993 11.034L23.4292 10.9172C23.7023 8.88365 25.1708 7.46341 27.0002 7.46341V8.34146C25.623 8.34146 24.5123 9.44868 24.2993 11.034Z" fill="#D2D5D7"/>
<path d="M3.35913 11.0305C3.15937 9.44736 2.04908 8.34146 0.658691 8.34146V7.46341C2.47537 7.46341 3.97772 8.91746 4.23016 10.9207L3.35913 11.0305Z" fill="#D2D5D7"/>
<path d="M10.3171 16.2439H5.92682C5.68448 16.2439 5.48779 16.0477 5.48779 15.8049C5.48779 15.5621 5.68448 15.3659 5.92682 15.3659H10.3171C10.5594 15.3659 10.7561 15.5621 10.7561 15.8049C10.7561 16.0477 10.5594 16.2439 10.3171 16.2439Z" fill="white"/>
<path d="M8.56102 14.4878H5.48785C5.24551 14.4878 5.04883 14.2916 5.04883 14.0488C5.04883 13.806 5.24551 13.6098 5.48785 13.6098H8.56102C8.80337 13.6098 9.00005 13.806 9.00005 14.0488C9.00005 14.2916 8.80337 14.4878 8.56102 14.4878Z" fill="white"/>
<path d="M7.24401 12.7317H5.04889C4.80655 12.7317 4.60986 12.5355 4.60986 12.2927C4.60986 12.0499 4.80655 11.8537 5.04889 11.8537H7.24401C7.48635 11.8537 7.68303 12.0499 7.68303 12.2927C7.68303 12.5355 7.48635 12.7317 7.24401 12.7317Z" fill="white"/>
<path d="M5.92725 3.5122H21.7321L20.8541 2.63416H6.80529L5.92725 3.5122Z" fill="#E6E6E6"/>
<path d="M4.60986 4.82927H23.0489L22.1708 3.95122H5.48791L4.60986 4.82927Z" fill="#E6E6E6"/>
</svg>
