<svg width="25" height="22" viewBox="0 0 25 22" fill="none" xmlns="http://www.w3.org/2000/svg">
<path d="M13.7531 4.63736C13.0746 5.3158 11.506 5.44172 11.1212 5.0468C10.7655 4.69107 10.8522 3.09336 11.5306 2.41492C12.2091 1.73648 13.0165 1.79503 13.6945 2.47347C14.3725 3.15192 14.4315 3.95936 13.7531 4.63736Z" fill="#D75A4A"/>
<path d="M21.2934 20.7611H3.24268V22H21.2934V20.7611Z" fill="#C9C9C9"/>
<path d="M22.5655 20.7611H1.92206C1.84765 20.7611 1.77677 20.7316 1.72394 20.6792L0.0826458 18.5158C-0.093899 18.3392 0.0311352 18.0376 0.280764 18.0376H24.5352C24.7972 18.0376 24.9156 18.3652 24.7144 18.5329L22.7447 20.6964C22.6945 20.7382 22.6311 20.7611 22.5655 20.7611Z" fill="#E6E6E6"/>
<path d="M8.96661 17.1571C7.9954 17.1571 7.20557 16.3672 7.20557 15.396C7.20557 14.4248 7.9954 13.635 8.96661 13.635C9.93783 13.635 10.7277 14.4248 10.7277 15.396C10.7277 16.3672 9.93783 17.1571 8.96661 17.1571ZM8.96661 14.5155C8.481 14.5155 8.08609 14.9104 8.08609 15.396C8.08609 15.8816 8.481 16.2765 8.96661 16.2765C9.45222 16.2765 9.84714 15.8816 9.84714 15.396C9.84714 14.9104 9.45222 14.5155 8.96661 14.5155Z" fill="#231F20"/>
<path d="M8.96661 17.1571C7.9954 17.1571 7.20557 16.3672 7.20557 15.396C7.20557 14.4248 7.9954 13.635 8.96661 13.635C9.93783 13.635 10.7277 14.4248 10.7277 15.396C10.7277 16.3672 9.93783 17.1571 8.96661 17.1571ZM8.96661 14.5155C8.481 14.5155 8.08609 14.9104 8.08609 15.396C8.08609 15.8816 8.481 16.2765 8.96661 16.2765C9.45222 16.2765 9.84714 15.8816 9.84714 15.396C9.84714 14.9104 9.45222 14.5155 8.96661 14.5155Z" fill="#231F20"/>
<path d="M7.64544 10.993V9.23193H3.46296C2.8576 9.23193 2.3623 9.72723 2.3623 10.3326C2.3623 10.9379 2.8576 11.4332 3.46296 11.4332H7.72689C7.67758 11.295 7.64544 11.148 7.64544 10.993Z" fill="#EEAF4B"/>
<path d="M21.5137 9.23193H12.8471C12.664 9.74264 12.1793 10.1125 11.6078 10.1125C11.0363 10.1125 10.5516 9.74264 10.3685 9.23193H10.287V10.993C10.287 11.148 10.2549 11.295 10.2056 11.4332H21.5137C22.119 11.4332 22.6143 10.9379 22.6143 10.3326C22.6143 9.72723 22.119 9.23193 21.5137 9.23193Z" fill="#EEAF4B"/>
<path d="M7.64544 7.47093C7.64544 8.19736 7.05109 8.79172 6.32466 8.79172C5.59823 8.79172 5.00387 8.19736 5.00387 7.47093V7.03067H3.46296C2.8576 7.03067 2.3623 7.52596 2.3623 8.13132C2.3623 8.73668 2.8576 9.23198 3.46296 9.23198H7.64544V7.47093Z" fill="#FBD490"/>
<path d="M21.5137 7.03067H12.9286V8.79172C12.9286 8.94669 12.8965 9.09374 12.8472 9.23198H21.5137C22.1191 9.23198 22.6144 8.73668 22.6144 8.13132C22.6144 7.52596 22.1191 7.03067 21.5137 7.03067Z" fill="#FBD490"/>
<path d="M21.5137 11.4333H10.2056C10.0224 11.944 9.53769 12.3138 8.96623 12.3138C8.39477 12.3138 7.91004 11.944 7.72689 11.4333H3.46296C2.8576 11.4333 2.3623 11.9286 2.3623 12.5339C2.3623 13.1393 2.8576 13.6346 3.46296 13.6346H21.5137C22.119 13.6346 22.6143 13.1393 22.6143 12.5339C22.6143 11.9286 22.119 11.4333 21.5137 11.4333Z" fill="#FBD490"/>
<path d="M21.5137 13.6346H3.46296C2.8576 13.6346 2.3623 14.1298 2.3623 14.7352C2.3623 15.3406 2.8576 15.8359 3.46296 15.8359H7.72645C7.67714 15.6976 7.64544 15.551 7.64544 15.3956C7.64544 14.6661 8.23671 14.0748 8.96623 14.0748C9.69574 14.0748 10.287 14.6661 10.287 15.3956C10.287 15.551 10.2553 15.6976 10.206 15.8359H21.5137C22.119 15.8359 22.6143 15.3406 22.6143 14.7352C22.6143 14.1298 22.119 13.6346 21.5137 13.6346Z" fill="#EEAF4B"/>
<path d="M21.5137 15.8359H10.2064C10.0246 16.3479 9.54077 16.7164 8.96667 16.7164C8.39257 16.7164 7.90872 16.3479 7.72689 15.8359H3.46296C2.8576 15.8359 2.3623 16.3312 2.3623 16.9365C2.3623 17.5419 2.8576 18.0372 3.46296 18.0372H21.5137C22.119 18.0372 22.6143 17.5419 22.6143 16.9365C22.6143 16.3312 22.119 15.8359 21.5137 15.8359Z" fill="#FBD490"/>
<path d="M22.1742 5.26962H2.80273V7.03067H5.00404V7.47093C5.00404 8.19736 5.59839 8.79171 6.32483 8.79171C7.05126 8.79171 7.64561 8.19736 7.64561 7.47093V10.993C7.64561 11.7195 8.23996 12.3138 8.9664 12.3138C9.69283 12.3138 10.2872 11.7195 10.2872 10.993V8.79171C10.2872 9.51815 10.8815 10.1125 11.608 10.1125C12.3344 10.1125 12.9287 9.51815 12.9287 8.79171V7.03067H22.1742V5.26962Z" fill="#7A3726"/>
<path d="M16.0106 3.0388C15.8979 3.0388 15.7852 2.99565 15.6994 2.9098C15.2763 2.48671 14.5868 2.48671 14.1637 2.9098C13.9916 3.08194 13.7134 3.08194 13.5412 2.9098C13.3691 2.73766 13.3691 2.45941 13.5412 2.28727C14.3082 1.52033 15.555 1.52033 16.3219 2.28727C16.494 2.45941 16.494 2.73766 16.3219 2.9098C16.2361 2.99609 16.1233 3.0388 16.0106 3.0388Z" fill="#88C057"/>
<path d="M13.7866 3.03879C13.6739 3.03879 13.5611 2.99565 13.4753 2.9098C13.3032 2.73766 13.3032 2.45897 13.4753 2.28727C13.6809 2.08167 13.794 1.80914 13.794 1.51945C13.794 1.22976 13.6809 0.957239 13.4753 0.751636C13.3032 0.579935 13.3032 0.301249 13.4753 0.129107C13.6474 -0.0430356 13.9257 -0.0430356 14.0978 0.129107C14.4698 0.500687 14.6746 0.994661 14.6746 1.51945C14.6746 2.04424 14.4698 2.53822 14.0978 2.9098C14.0115 2.99609 13.8988 3.03879 13.7866 3.03879Z" fill="#659C35"/>
<path d="M8.96629 16.7164C9.69574 16.7164 10.2871 16.1251 10.2871 15.3956C10.2871 14.6662 9.69574 14.0748 8.96629 14.0748C8.23684 14.0748 7.64551 14.6662 7.64551 15.3956C7.64551 16.1251 8.23684 16.7164 8.96629 16.7164Z" fill="#7A3726"/>
</svg>
