<svg width="23" height="23" viewBox="0 0 23 23" fill="none" xmlns="http://www.w3.org/2000/svg">
<g clip-path="url(#clip0)">
<path d="M11.5 21.7332C11.5 21.7332 8.44529 17.9418 5.38611 15.1971C2.32693 12.4523 0.265014 14.2986 0.265014 14.2986C0.265014 14.2986 -0.947876 13.1396 1.79685 10.9205C4.54158 8.70135 -0.103345 8.80917 1.27126 6.64393C2.64587 4.4787 4.96384 4.16424 4.96384 4.16424C4.96384 4.16424 5.02673 4.16424 6.18123 2.47518C7.33572 0.786118 9.09665 0.795102 9.92771 1.52733C10.7588 2.25956 11.6168 2.26405 12.5422 2.26405C12.5422 2.26405 18.8402 4.26307 17.2859 7.84784C15.7316 11.4326 13.9842 13.6338 14.0965 15.1566C14.2088 16.6795 13.2474 21.3019 13.2474 21.3019C13.2474 21.3019 13.0677 22.8562 11.5 21.7332Z" fill="#79AA2D"/>
<path d="M11.3069 21.585C11.3069 21.585 8.61159 15.6193 7.63679 13.6113C6.66198 11.6033 4.99987 10.0535 4.25417 9.1955C3.50847 8.33749 3.16257 7.41659 3.85437 6.84608C4.54167 6.27108 5.40417 6.10038 5.57487 6.04198C5.74558 5.98358 5.37273 4.55057 7.39421 3.86327C9.4157 3.17596 10.5073 2.54257 10.5073 2.54257C10.5073 2.54257 11.4821 1.28026 12.5737 1.28026C13.6653 1.28026 15.4397 1.62616 15.4397 1.62616C15.4397 1.62616 17.3893 1.16796 17.56 0.997253C17.7307 0.82655 18.4225 0.53905 19.3973 1.51385C20.3721 2.48866 20.3721 3.86327 20.3721 3.86327C20.3721 3.86327 22.6677 4.32147 22.9552 6.04198C23.2427 7.76249 21.4637 8.10839 21.4637 8.10839C21.4637 8.10839 23.1887 9.08319 22.9866 10.7453C22.7844 12.4074 21.7512 12.1783 21.5805 12.4389C21.4098 12.6949 19.4602 13.5574 19.5141 14.4154C19.5725 15.2779 19.6309 16.1359 19.6309 16.1359C19.6309 16.1359 19.5141 16.5941 18.2563 16.94C16.9985 17.2859 16.3651 16.2527 15.7317 18.2023C15.0983 20.1519 13.553 21.7601 12.8657 22.1016C12.1784 22.443 11.3069 21.585 11.3069 21.585Z" fill="#8CC63F"/>
<path d="M10.5029 4.62692C10.5029 4.62692 10.7904 4.78864 11.1812 5.15251C10.9611 4.88747 10.7365 4.6988 10.5029 4.62692Z" fill="#B6E867"/>
<path d="M13.1937 18.1125C13.2341 17.214 13.2925 16.1988 13.3375 15.2599C13.3375 15.2555 13.3375 15.2465 13.3419 15.242C13.8091 13.9258 15.8306 8.62947 18.8539 6.9449C18.9302 6.89998 18.8718 6.78318 18.791 6.82361C18.1755 7.11111 17.4208 7.62322 16.6212 8.51717C16.5808 8.56209 16.5044 8.53514 16.5 8.47225C16.4505 6.63494 17.1333 4.34842 17.4882 3.28826C17.5152 3.2074 17.3984 3.15799 17.3625 3.23436C16.4281 5.04471 16.2753 8.30154 16.2529 8.93494C16.2529 8.94842 16.2484 8.9619 16.2394 8.97537C15.3275 10.1209 14.3796 11.7875 13.5261 14.2043C13.4992 14.2806 13.3869 14.2582 13.3914 14.1773C13.4273 13.3508 13.4498 12.6724 13.4408 12.3265C13.4138 11.4775 13.4228 8.80018 13.4318 7.11111C13.4318 7.02127 13.3015 7.01678 13.2925 7.10662C13.2611 7.51092 13.2296 8.00057 13.2027 8.58455C13.1982 8.66541 13.0814 8.6744 13.0679 8.59803C12.8029 7.34022 12.2728 6.42381 11.7607 5.78592C11.7068 5.71854 11.6035 5.79041 11.6484 5.86229C12.3896 7.18299 12.9466 9.16854 13.1533 9.96365C13.1533 9.96815 13.1578 9.97713 13.1533 9.98162C13.1263 10.9474 13.1173 12.084 13.1353 13.4002C13.1443 14.2762 13.1083 15.0892 13.0365 15.8349C13.0275 15.9113 12.9197 15.9203 12.9017 15.8439C12.466 14.1594 11.2171 9.97713 9.26753 8.58006C6.80132 6.81014 6.1814 7.18299 6.1814 7.18299C6.1814 7.18299 9.06089 7.6367 10.2917 10.2691C11.3429 12.5152 12.5468 16.0461 12.8792 17.0344C12.8837 17.0433 12.8837 17.0568 12.8837 17.0658C12.4615 19.824 11.6349 21.4187 11.4957 21.6703C11.4822 21.6928 11.4822 21.7197 11.5001 21.7422C12.0751 22.6271 13.0949 21.9668 13.3734 21.7646C13.4048 21.7422 13.4138 21.6972 13.3869 21.6658C13.315 21.5805 13.1892 21.3199 13.1398 20.5607C13.1218 20.3047 13.1308 19.806 13.1533 19.1726C13.1533 19.1637 13.1578 19.1502 13.1623 19.1412C14.0158 17.5959 15.7048 14.9365 17.2861 14.8736C16.756 14.8916 14.7255 15.1656 13.3285 18.1529C13.2925 18.2113 13.1892 18.1888 13.1937 18.1125Z" fill="#B6E867"/>
</g>
<defs>
<clipPath id="clip0">
<rect width="23" height="23" fill="white"/>
</clipPath>
</defs>
</svg>
