<svg width="20" height="21" viewBox="0 0 20 21" fill="none" xmlns="http://www.w3.org/2000/svg">
<path d="M5.01776 20.3358C3.51857 20.2291 2.73481 19.6887 2.33226 19.089C2.40941 17.629 2.63295 15.8106 3.26118 14.1603C3.62134 13.2152 4.13246 12.3597 4.75946 11.7308C5.445 10.9812 6.07845 10.4044 6.7167 9.9288C7.97652 8.99573 9.08174 8.58926 9.4315 8.44627C9.78527 8.30979 10.4196 8.05323 11.1872 7.76757C11.9523 7.50555 12.8791 7.12636 13.6702 6.66277C15.292 5.77594 16.6363 4.77517 16.6341 4.77481C16.6369 4.77517 15.1996 5.57176 13.5296 6.23297C12.687 6.59216 11.8261 6.8283 11.0225 7.0143C10.2317 7.21769 9.56387 7.42478 9.19608 7.56704C8.50838 7.85417 4.38802 9.17262 2.28346 13.5922C1.80742 14.7211 1.50886 15.8889 1.31551 16.9831C0.839767 16.7146 0.247529 16.1949 0.0862026 15.2331C-0.194974 13.5573 -0.0385272 8.52886 4.51824 5.73553C9.07533 2.94254 14.163 3.50077 16.5979 2.68162C19.0324 1.86247 20 0 20 0C20 0 17.9711 18.9577 5.01776 20.3358Z" fill="#8CC63F"/>
</svg>
