<svg width="25" height="24" viewBox="0 0 25 24" fill="none" xmlns="http://www.w3.org/2000/svg">
<path d="M24.0454 5.87416L0 13.2169V22.7624C0 23.001 0.135685 23.225 0.364116 23.3627C0.592548 23.5004 0.884529 23.5341 1.14774 23.4541L24.0454 16.4616V5.87416Z" fill="#FBE158"/>
<path d="M24.0454 5.87417L0 13.2169L12.0227 0C17.2655 0 22.0385 2.72158 24.0454 5.87417Z" fill="#FCF6C2"/>
<path d="M10.7346 17.6225C10.9717 17.6225 11.1639 17.4582 11.1639 17.2554C11.1639 17.0526 10.9717 16.8883 10.7346 16.8883C10.4974 16.8883 10.3052 17.0526 10.3052 17.2554C10.3052 17.4582 10.4974 17.6225 10.7346 17.6225Z" fill="#F3B607"/>
<path d="M21.8986 8.81126C22.1358 8.81126 22.328 8.64689 22.328 8.44412C22.328 8.24136 22.1358 8.07698 21.8986 8.07698C21.6615 8.07698 21.4692 8.24136 21.4692 8.44412C21.4692 8.64689 21.6615 8.81126 21.8986 8.81126Z" fill="#F3B607"/>
<path d="M18.8931 13.2169C19.8416 13.2169 20.6106 12.5594 20.6106 11.7483C20.6106 10.9373 19.8416 10.2798 18.8931 10.2798C17.9445 10.2798 17.1755 10.9373 17.1755 11.7483C17.1755 12.5594 17.9445 13.2169 18.8931 13.2169Z" fill="#F3B607"/>
<path d="M5.58197 13.2169C5.81911 13.2169 6.01135 13.0525 6.01135 12.8498C6.01135 12.647 5.81911 12.4826 5.58197 12.4826C5.34483 12.4826 5.15259 12.647 5.15259 12.8498C5.15259 13.0525 5.34483 13.2169 5.58197 13.2169Z" fill="#F3B607"/>
<path d="M7.55725 20.4976C7.54651 20.5042 7.53535 20.5134 7.52719 20.5225C7.21761 20.8731 7.25367 21.2304 7.45892 21.4774L9.01157 21.0035C8.96734 20.4612 8.24297 20.079 7.55725 20.4976Z" fill="#F3B607"/>
<path d="M15.8871 16.154C16.3614 16.154 16.7458 15.8253 16.7458 15.4197C16.7458 15.0142 16.3614 14.6855 15.8871 14.6855C15.4128 14.6855 15.0283 15.0142 15.0283 15.4197C15.0283 15.8253 15.4128 16.154 15.8871 16.154Z" fill="#F3B607"/>
<path d="M4.29382 17.6225C4.76811 17.6225 5.15259 17.2938 5.15259 16.8883C5.15259 16.4827 4.76811 16.154 4.29382 16.154C3.81954 16.154 3.43506 16.4827 3.43506 16.8883C3.43506 17.2938 3.81954 17.6225 4.29382 17.6225Z" fill="#F3B607"/>
<path d="M13.3109 3.30423C14.0223 3.30423 14.599 3.05767 14.599 2.75352C14.599 2.44938 14.0223 2.20282 13.3109 2.20282C12.5994 2.20282 12.0227 2.44938 12.0227 2.75352C12.0227 3.05767 12.5994 3.30423 13.3109 3.30423Z" fill="#FACB1B"/>
<path d="M10.5197 7.15913C11.1126 7.15913 11.5932 6.95367 11.5932 6.70022C11.5932 6.44677 11.1126 6.2413 10.5197 6.2413C9.92689 6.2413 9.44629 6.44677 9.44629 6.70022C9.44629 6.95367 9.92689 7.15913 10.5197 7.15913Z" fill="#FACB1B"/>
<path d="M16.9605 5.87421C18.0277 5.87421 18.8928 5.54546 18.8928 5.13992C18.8928 4.73439 18.0277 4.40564 16.9605 4.40564C15.8934 4.40564 15.0283 4.73439 15.0283 5.13992C15.0283 5.54546 15.8934 5.87421 16.9605 5.87421Z" fill="#FACB1B"/>
<path d="M6.4408 9.54553C6.91508 9.54553 7.29956 9.38116 7.29956 9.1784C7.29956 8.97564 6.91508 8.81126 6.4408 8.81126C5.96651 8.81126 5.58203 8.97564 5.58203 9.1784C5.58203 9.38116 5.96651 9.54553 6.4408 9.54553Z" fill="#FACB1B"/>
</svg>
