<svg width="20" height="24" viewBox="0 0 20 24" fill="none" xmlns="http://www.w3.org/2000/svg">
<path fill-rule="evenodd" clip-rule="evenodd" d="M0.725354 18.9964C1.9645 21.5706 4.86591 23.5827 9.88294 23.4939C14.9 23.5827 17.8014 21.5706 19.0405 18.9964C19.5241 17.9607 19.7659 16.8363 19.7659 15.7119C19.7659 14.5875 19.5543 13.4336 19.1312 12.3979C18.0734 9.79406 15.7764 7.72281 12.6937 7.72281C12.2403 7.72281 11.787 7.78199 11.3639 7.87076C10.9105 7.95952 10.4874 8.10747 10.0945 8.28501L9.88294 8.37377L9.67137 8.28501C9.27847 8.10747 8.85535 7.95952 8.40201 7.87076C7.97888 7.78199 7.52554 7.72281 7.07219 7.72281C3.98944 7.72281 1.66227 9.76447 0.634685 12.3979C0.211562 13.4336 0 14.5875 0 15.7119C0 16.8363 0.241785 17.9607 0.725354 18.9964Z" fill="#D73426"/>
<path d="M9.24824 2.13044C9.24824 1.53865 9.49003 1.00604 9.88293 0.621379C10.2758 0.236716 10.8198 0 11.4243 0C11.7568 0 12.059 0.266305 12.059 0.621379C12.059 0.946863 11.787 1.24276 11.4243 1.24276C11.1523 1.24276 10.9407 1.33153 10.7594 1.50906C10.5781 1.6866 10.4874 1.89373 10.4874 2.16003V8.34423C10.4874 8.66971 10.2154 8.96561 9.8527 8.96561C9.52025 8.96561 9.21802 8.6993 9.21802 8.34423V2.13044H9.24824Z" fill="#278943"/>
<path fill-rule="evenodd" clip-rule="evenodd" d="M1.93433 1.53866C9.52031 12.9306 15.3231 -2.04165 1.93433 1.53866V1.53866Z" fill="#7EB642"/>
</svg>
